<?xml version="1.0" encoding="UTF-8" standalone="no"?>
<!DOCTYPE svg PUBLIC "-//W3C//DTD SVG 1.1//EN" "http://www.w3.org/Graphics/SVG/1.1/DTD/svg11.dtd">
<svg xmlns="http://www.w3.org/2000/svg" version="1.1" viewBox="0.00 0.00 1200.00 447.00">
<circle fill="#19181b" cx="958.37" cy="16.04" r="13.38"/>
<circle fill="#19181b" cx="525.51" cy="20.25" r="13.36"/>
<circle fill="#19181b" cx="255.83" cy="22.76" r="13.38"/>
<circle fill="#19181b" cx="1032.69" cy="57.02" r="13.37"/>
<circle fill="#19181b" cx="923.15" cy="59.09" r="13.38"/>
<circle fill="#19181b" cx="193.25" cy="62.40" r="13.38"/>
<circle fill="#19181b" cx="286.18" cy="63.98" r="13.37"/>
<circle fill="#19181b" cx="486.18" cy="68.35" r="13.37"/>
<circle fill="#19181b" cx="239.16" cy="68.95" r="13.37"/>
<circle fill="#19181b" cx="868.66" cy="70.59" r="13.38"/>
<circle fill="#19181b" cx="548.47" cy="71.63" r="13.37"/>
<circle fill="#19181b" cx="961.65" cy="71.77" r="13.37"/>
<circle fill="#19181b" cx="698.56" cy="72.20" r="13.37"/>
<circle fill="#19181b" cx="337.90" cy="73.84" r="13.38"/>
<ellipse fill="#19181b" cx="0.00" cy="0.00" transform="translate(47.27,111.51) rotate(91.0)" rx="13.35" ry="13.14"/>
<circle fill="#19181b" cx="80.80" cy="111.51" r="13.25"/>
<circle fill="#19181b" cx="114.50" cy="111.51" r="13.37"/>
<circle fill="#19181b" cx="148.02" cy="111.51" r="13.36"/>
<circle fill="#19181b" cx="181.58" cy="111.51" r="13.37"/>
<circle fill="#19181b" cx="215.10" cy="111.51" r="13.38"/>
<circle fill="#19181b" cx="248.62" cy="111.51" r="13.38"/>
<circle fill="#19181b" cx="283.79" cy="111.51" r="13.36"/>
<circle fill="#19181b" cx="317.35" cy="111.51" r="13.38"/>
<circle fill="#19181b" cx="431.30" cy="111.51" r="13.36"/>
<circle fill="#19181b" cx="465.03" cy="111.51" r="13.25"/>
<circle fill="#19181b" cx="498.55" cy="111.51" r="13.25"/>
<circle fill="#19181b" cx="532.25" cy="111.51" r="13.36"/>
<circle fill="#19181b" cx="565.78" cy="111.51" r="13.36"/>
<circle fill="#19181b" cx="599.34" cy="111.51" r="13.37"/>
<circle fill="#19181b" cx="632.86" cy="111.51" r="13.37"/>
<circle fill="#19181b" cx="666.39" cy="111.51" r="13.38"/>
<circle fill="#19181b" cx="701.55" cy="111.52" r="13.37"/>
<circle fill="#19181b" cx="735.10" cy="111.51" r="13.38"/>
<circle fill="#19181b" cx="882.79" cy="111.51" r="13.25"/>
<circle fill="#19181b" cx="916.31" cy="111.51" r="13.25"/>
<circle fill="#19181b" cx="950.01" cy="111.51" r="13.37"/>
<circle fill="#19181b" cx="983.54" cy="111.51" r="13.36"/>
<circle fill="#19181b" cx="1017.10" cy="111.51" r="13.37"/>
<circle fill="#19181b" cx="1050.62" cy="111.51" r="13.38"/>
<circle fill="#19181b" cx="1084.14" cy="111.52" r="13.38"/>
<circle fill="#19181b" cx="1119.31" cy="111.52" r="13.37"/>
<circle fill="#19181b" cx="1152.86" cy="111.51" r="13.38"/>
<circle fill="#19181b" cx="1186.39" cy="111.51" r="13.38"/>
<circle fill="#19181b" cx="13.54" cy="143.60" r="13.25"/>
<circle fill="#19181b" cx="47.26" cy="143.60" r="13.13"/>
<circle fill="#19181b" cx="80.79" cy="143.59" r="13.13"/>
<ellipse fill="#19181b" cx="0.00" cy="0.00" transform="translate(114.51,143.60) rotate(1.5)" rx="13.35" ry="13.16"/>
<circle fill="#19181b" cx="148.02" cy="143.60" r="13.25"/>
<ellipse fill="#19181b" cx="0.00" cy="0.00" transform="translate(181.58,143.58) rotate(-0.7)" rx="13.36" ry="13.15"/>
<ellipse fill="#19181b" cx="0.00" cy="0.00" transform="translate(215.11,143.58) rotate(0.3)" rx="13.36" ry="13.15"/>
<ellipse fill="#19181b" cx="0.00" cy="0.00" transform="translate(248.62,143.58) rotate(-0.9)" rx="13.36" ry="13.15"/>
<ellipse fill="#19181b" cx="283.79" cy="143.60" rx="13.36" ry="13.16"/>
<ellipse fill="#19181b" cx="0.00" cy="0.00" transform="translate(317.35,143.58) rotate(0.8)" rx="13.36" ry="13.15"/>
<ellipse fill="#19181b" cx="0.00" cy="0.00" transform="translate(350.87,143.58) rotate(-0.6)" rx="13.36" ry="13.15"/>
<circle fill="#19181b" cx="431.30" cy="143.60" r="13.25"/>
<circle fill="#19181b" cx="465.02" cy="143.59" r="13.13"/>
<circle fill="#19181b" cx="498.55" cy="143.59" r="13.14"/>
<circle fill="#19181b" cx="532.26" cy="143.60" r="13.25"/>
<circle fill="#19181b" cx="565.78" cy="143.60" r="13.25"/>
<ellipse fill="#19181b" cx="0.00" cy="0.00" transform="translate(599.33,143.58) rotate(-0.6)" rx="13.36" ry="13.15"/>
<circle fill="#19181b" cx="632.86" cy="143.58" r="13.26"/>
<ellipse fill="#19181b" cx="0.00" cy="0.00" transform="translate(666.39,143.58) rotate(-0.5)" rx="13.36" ry="13.15"/>
<ellipse fill="#19181b" cx="0.00" cy="0.00" transform="translate(701.55,143.60) rotate(-0.9)" rx="13.36" ry="13.16"/>
<ellipse fill="#19181b" cx="0.00" cy="0.00" transform="translate(735.11,143.58) rotate(0.4)" rx="13.37" ry="13.15"/>
<ellipse fill="#19181b" cx="0.00" cy="0.00" transform="translate(768.63,143.58) rotate(-0.8)" rx="13.36" ry="13.15"/>
<circle fill="#19181b" cx="849.05" cy="143.60" r="13.25"/>
<circle fill="#19181b" cx="882.78" cy="143.59" r="13.13"/>
<circle fill="#19181b" cx="916.31" cy="143.58" r="13.14"/>
<circle fill="#19181b" cx="950.02" cy="143.60" r="13.25"/>
<ellipse fill="#19181b" cx="0.00" cy="0.00" transform="translate(983.54,143.60) rotate(-0.7)" rx="13.36" ry="13.16"/>
<ellipse fill="#19181b" cx="0.00" cy="0.00" transform="translate(1017.10,143.58) rotate(1.0)" rx="13.36" ry="13.15"/>
<ellipse fill="#19181b" cx="0.00" cy="0.00" transform="translate(1050.62,143.58) rotate(-0.9)" rx="13.36" ry="13.15"/>
<ellipse fill="#19181b" cx="0.00" cy="0.00" transform="translate(1084.15,143.58) rotate(-0.4)" rx="13.36" ry="13.15"/>
<circle fill="#19181b" cx="1119.30" cy="143.60" r="13.26"/>
<circle fill="#19181b" cx="1152.86" cy="143.58" r="13.26"/>
<ellipse fill="#19181b" cx="0.00" cy="0.00" transform="translate(1186.39,143.58) rotate(-1.0)" rx="13.36" ry="13.15"/>
<circle fill="#19181b" cx="13.55" cy="175.66" r="13.37"/>
<ellipse fill="#19181b" cx="0.00" cy="0.00" transform="translate(47.26,175.66) rotate(89.8)" rx="13.36" ry="13.14"/>
<ellipse fill="#19181b" cx="0.00" cy="0.00" transform="translate(80.79,175.66) rotate(90.4)" rx="13.37" ry="13.14"/>
<circle fill="#19181b" cx="114.50" cy="175.66" r="13.38"/>
<circle fill="#19181b" cx="148.03" cy="175.67" r="13.37"/>
<circle fill="#19181b" cx="181.58" cy="175.66" r="13.37"/>
<circle fill="#19181b" cx="215.10" cy="175.66" r="13.38"/>
<circle fill="#19181b" cx="248.63" cy="175.66" r="13.38"/>
<circle fill="#19181b" cx="283.79" cy="175.67" r="13.37"/>
<circle fill="#19181b" cx="317.35" cy="175.66" r="13.38"/>
<circle fill="#19181b" cx="350.87" cy="175.66" r="13.38"/>
<circle fill="#19181b" cx="431.30" cy="175.66" r="13.37"/>
<ellipse fill="#19181b" cx="0.00" cy="0.00" transform="translate(465.01,175.66) rotate(89.7)" rx="13.36" ry="13.14"/>
<ellipse fill="#19181b" cx="0.00" cy="0.00" transform="translate(498.55,175.66) rotate(91.0)" rx="13.36" ry="13.15"/>
<circle fill="#19181b" cx="532.26" cy="175.66" r="13.38"/>
<circle fill="#19181b" cx="565.79" cy="175.67" r="13.37"/>
<circle fill="#19181b" cx="599.33" cy="175.66" r="13.38"/>
<circle fill="#19181b" cx="632.86" cy="175.66" r="13.37"/>
<circle fill="#19181b" cx="666.39" cy="175.66" r="13.38"/>
<circle fill="#19181b" cx="701.55" cy="175.67" r="13.37"/>
<circle fill="#19181b" cx="735.11" cy="175.66" r="13.38"/>
<circle fill="#19181b" cx="768.63" cy="175.66" r="13.38"/>
<circle fill="#19181b" cx="849.06" cy="175.66" r="13.37"/>
<ellipse fill="#19181b" cx="0.00" cy="0.00" transform="translate(882.77,175.66) rotate(89.9)" rx="13.37" ry="13.14"/>
<ellipse fill="#19181b" cx="0.00" cy="0.00" transform="translate(916.30,175.66) rotate(90.7)" rx="13.36" ry="13.15"/>
<circle fill="#19181b" cx="950.02" cy="175.67" r="13.37"/>
<circle fill="#19181b" cx="983.54" cy="175.67" r="13.37"/>
<circle fill="#19181b" cx="1017.09" cy="175.66" r="13.38"/>
<circle fill="#19181b" cx="1050.62" cy="175.65" r="13.38"/>
<circle fill="#19181b" cx="1084.14" cy="175.66" r="13.38"/>
<circle fill="#19181b" cx="1119.30" cy="175.67" r="13.37"/>
<circle fill="#19181b" cx="1152.86" cy="175.66" r="13.37"/>
<circle fill="#19181b" cx="1186.39" cy="175.66" r="13.38"/>
<circle fill="#19181b" cx="13.54" cy="207.89" r="13.37"/>
<ellipse fill="#19181b" cx="0.00" cy="0.00" transform="translate(47.27,207.89) rotate(90.4)" rx="13.37" ry="13.14"/>
<ellipse fill="#19181b" cx="0.00" cy="0.00" transform="translate(80.79,207.89) rotate(89.6)" rx="13.36" ry="13.15"/>
<circle fill="#19181b" cx="283.79" cy="207.90" r="13.38"/>
<circle fill="#19181b" cx="317.35" cy="207.89" r="13.37"/>
<circle fill="#19181b" cx="350.87" cy="207.89" r="13.37"/>
<circle fill="#19181b" cx="431.30" cy="207.89" r="13.37"/>
<ellipse fill="#19181b" cx="0.00" cy="0.00" transform="translate(465.02,207.89) rotate(89.6)" rx="13.37" ry="13.14"/>
<ellipse fill="#19181b" cx="0.00" cy="0.00" transform="translate(498.55,207.90) rotate(89.0)" rx="13.36" ry="13.15"/>
<circle fill="#19181b" cx="701.55" cy="207.90" r="13.38"/>
<circle fill="#19181b" cx="735.11" cy="207.90" r="13.37"/>
<circle fill="#19181b" cx="768.63" cy="207.89" r="13.37"/>
<circle fill="#19181b" cx="849.05" cy="207.89" r="13.37"/>
<ellipse fill="#19181b" cx="0.00" cy="0.00" transform="translate(882.78,207.89) rotate(89.3)" rx="13.36" ry="13.15"/>
<ellipse fill="#19181b" cx="0.00" cy="0.00" transform="translate(916.30,207.90) rotate(88.9)" rx="13.36" ry="13.15"/>
<circle fill="#19181b" cx="13.54" cy="239.96" r="13.25"/>
<circle fill="#19181b" cx="47.27" cy="239.96" r="13.13"/>
<circle fill="#19181b" cx="80.79" cy="239.96" r="13.13"/>
<circle fill="#19181b" cx="114.50" cy="239.96" r="13.25"/>
<circle fill="#19181b" cx="148.02" cy="239.96" r="13.25"/>
<ellipse fill="#19181b" cx="0.00" cy="0.00" transform="translate(181.58,239.96) rotate(-0.5)" rx="13.37" ry="13.14"/>
<ellipse fill="#19181b" cx="0.00" cy="0.00" transform="translate(215.10,239.97) rotate(0.6)" rx="13.36" ry="13.15"/>
<ellipse fill="#19181b" cx="248.63" cy="239.97" rx="13.37" ry="13.14"/>
<ellipse fill="#19181b" cx="0.00" cy="0.00" transform="translate(283.80,239.96) rotate(-1.1)" rx="13.36" ry="13.14"/>
<ellipse fill="#19181b" cx="0.00" cy="0.00" transform="translate(317.35,239.97) rotate(0.6)" rx="13.37" ry="13.15"/>
<ellipse fill="#19181b" cx="0.00" cy="0.00" transform="translate(350.88,239.97) rotate(-0.5)" rx="13.37" ry="13.14"/>
<circle fill="#19181b" cx="431.30" cy="239.96" r="13.25"/>
<circle fill="#19181b" cx="465.03" cy="239.96" r="13.13"/>
<circle fill="#19181b" cx="498.55" cy="239.97" r="13.13"/>
<circle fill="#19181b" cx="532.25" cy="239.96" r="13.25"/>
<ellipse fill="#19181b" cx="0.00" cy="0.00" transform="translate(565.78,239.96) rotate(0.9)" rx="13.35" ry="13.15"/>
<ellipse fill="#19181b" cx="0.00" cy="0.00" transform="translate(599.34,239.96) rotate(-0.2)" rx="13.37" ry="13.14"/>
<ellipse fill="#19181b" cx="0.00" cy="0.00" transform="translate(632.86,239.97) rotate(0.5)" rx="13.36" ry="13.15"/>
<ellipse fill="#19181b" cx="0.00" cy="0.00" transform="translate(666.38,239.97) rotate(0.4)" rx="13.37" ry="13.14"/>
<ellipse fill="#19181b" cx="701.55" cy="239.97" rx="13.36" ry="13.14"/>
<ellipse fill="#19181b" cx="0.00" cy="0.00" transform="translate(735.11,239.97) rotate(0.9)" rx="13.36" ry="13.15"/>
<ellipse fill="#19181b" cx="768.63" cy="239.97" rx="13.37" ry="13.14"/>
<circle fill="#19181b" cx="849.06" cy="239.96" r="13.25"/>
<circle fill="#19181b" cx="882.79" cy="239.96" r="13.13"/>
<circle fill="#19181b" cx="916.31" cy="239.97" r="13.13"/>
<circle fill="#19181b" cx="950.01" cy="239.96" r="13.25"/>
<ellipse fill="#19181b" cx="0.00" cy="0.00" transform="translate(983.54,239.96) rotate(-0.3)" rx="13.36" ry="13.14"/>
<ellipse fill="#19181b" cx="0.00" cy="0.00" transform="translate(1017.10,239.97) rotate(0.5)" rx="13.37" ry="13.15"/>
<ellipse fill="#19181b" cx="0.00" cy="0.00" transform="translate(1050.62,239.97) rotate(0.3)" rx="13.36" ry="13.15"/>
<ellipse fill="#19181b" cx="1084.14" cy="239.97" rx="13.37" ry="13.14"/>
<ellipse fill="#19181b" cx="0.00" cy="0.00" transform="translate(1119.31,239.97) rotate(-0.4)" rx="13.37" ry="13.14"/>
<ellipse fill="#19181b" cx="0.00" cy="0.00" transform="translate(1152.86,239.97) rotate(0.5)" rx="13.36" ry="13.15"/>
<circle fill="#19181b" cx="13.54" cy="272.03" r="13.36"/>
<ellipse fill="#19181b" cx="0.00" cy="0.00" transform="translate(47.27,272.04) rotate(88.7)" rx="13.35" ry="13.14"/>
<ellipse fill="#19181b" cx="0.00" cy="0.00" transform="translate(80.79,272.04) rotate(88.3)" rx="13.35" ry="13.15"/>
<circle fill="#19181b" cx="114.50" cy="272.03" r="13.37"/>
<circle fill="#19181b" cx="148.02" cy="272.03" r="13.37"/>
<circle fill="#19181b" cx="181.58" cy="272.04" r="13.37"/>
<circle fill="#19181b" cx="215.11" cy="272.04" r="13.37"/>
<circle fill="#19181b" cx="248.62" cy="272.04" r="13.37"/>
<circle fill="#19181b" cx="283.79" cy="272.04" r="13.37"/>
<circle fill="#19181b" cx="317.35" cy="272.04" r="13.37"/>
<circle fill="#19181b" cx="350.87" cy="272.04" r="13.37"/>
<circle fill="#19181b" cx="431.29" cy="272.03" r="13.37"/>
<ellipse fill="#19181b" cx="0.00" cy="0.00" transform="translate(465.03,272.04) rotate(88.6)" rx="13.35" ry="13.14"/>
<circle fill="#19181b" cx="498.55" cy="272.04" r="13.25"/>
<circle fill="#19181b" cx="532.25" cy="272.03" r="13.37"/>
<circle fill="#19181b" cx="565.78" cy="272.03" r="13.37"/>
<circle fill="#19181b" cx="599.34" cy="272.04" r="13.37"/>
<circle fill="#19181b" cx="632.86" cy="272.04" r="13.37"/>
<circle fill="#19181b" cx="666.39" cy="272.04" r="13.37"/>
<circle fill="#19181b" cx="701.55" cy="272.04" r="13.37"/>
<circle fill="#19181b" cx="735.11" cy="272.04" r="13.37"/>
<circle fill="#19181b" cx="849.05" cy="272.03" r="13.36"/>
<ellipse fill="#19181b" cx="0.00" cy="0.00" transform="translate(882.79,272.04) rotate(88.8)" rx="13.35" ry="13.15"/>
<circle fill="#19181b" cx="916.30" cy="272.04" r="13.25"/>
<circle fill="#19181b" cx="950.01" cy="272.03" r="13.36"/>
<circle fill="#19181b" cx="983.54" cy="272.03" r="13.37"/>
<circle fill="#19181b" cx="1017.10" cy="272.04" r="13.37"/>
<circle fill="#19181b" cx="1050.62" cy="272.04" r="13.37"/>
<circle fill="#19181b" cx="1084.15" cy="272.04" r="13.37"/>
<circle fill="#19181b" cx="1119.31" cy="272.04" r="13.37"/>
<circle fill="#19181b" cx="1152.87" cy="272.04" r="13.37"/>
<circle fill="#19181b" cx="1186.39" cy="272.04" r="13.37"/>
<circle fill="#19181b" cx="13.54" cy="304.27" r="13.37"/>
<ellipse fill="#19181b" cx="0.00" cy="0.00" transform="translate(47.27,304.27) rotate(89.3)" rx="13.36" ry="13.14"/>
<circle fill="#19181b" cx="80.80" cy="304.27" r="13.25"/>
<circle fill="#19181b" cx="114.50" cy="304.27" r="13.37"/>
<circle fill="#19181b" cx="148.02" cy="304.27" r="13.36"/>
<circle fill="#19181b" cx="181.58" cy="304.27" r="13.37"/>
<circle fill="#19181b" cx="215.10" cy="304.27" r="13.38"/>
<circle fill="#19181b" cx="248.63" cy="304.27" r="13.38"/>
<circle fill="#19181b" cx="283.79" cy="304.28" r="13.37"/>
<circle fill="#19181b" cx="317.35" cy="304.27" r="13.38"/>
<circle fill="#19181b" cx="350.87" cy="304.27" r="13.38"/>
<circle fill="#19181b" cx="431.30" cy="304.27" r="13.37"/>
<ellipse fill="#19181b" cx="0.00" cy="0.00" transform="translate(465.03,304.27) rotate(89.7)" rx="13.36" ry="13.15"/>
<circle fill="#19181b" cx="498.55" cy="304.27" r="13.25"/>
<circle fill="#19181b" cx="532.26" cy="304.27" r="13.36"/>
<circle fill="#19181b" cx="565.78" cy="304.27" r="13.36"/>
<circle fill="#19181b" cx="599.34" cy="304.27" r="13.37"/>
<circle fill="#19181b" cx="632.86" cy="304.27" r="13.38"/>
<circle fill="#19181b" cx="666.39" cy="304.27" r="13.38"/>
<circle fill="#19181b" cx="701.55" cy="304.28" r="13.37"/>
<circle fill="#19181b" cx="735.10" cy="304.27" r="13.38"/>
<circle fill="#19181b" cx="768.63" cy="304.27" r="13.38"/>
<circle fill="#19181b" cx="882.79" cy="304.27" r="13.25"/>
<circle fill="#19181b" cx="916.30" cy="304.27" r="13.25"/>
<circle fill="#19181b" cx="950.01" cy="304.27" r="13.36"/>
<circle fill="#19181b" cx="983.54" cy="304.27" r="13.36"/>
<circle fill="#19181b" cx="1017.09" cy="304.27" r="13.38"/>
<circle fill="#19181b" cx="1050.62" cy="304.27" r="13.38"/>
<circle fill="#19181b" cx="1084.14" cy="304.27" r="13.38"/>
<circle fill="#19181b" cx="1119.31" cy="304.28" r="13.37"/>
<circle fill="#19181b" cx="1152.86" cy="304.27" r="13.38"/>
<circle fill="#19181b" cx="1186.39" cy="304.27" r="13.38"/>
<circle fill="#19181b" cx="13.54" cy="336.35" r="13.25"/>
<circle fill="#19181b" cx="47.26" cy="336.36" r="13.13"/>
<circle fill="#19181b" cx="80.79" cy="336.35" r="13.13"/>
<ellipse fill="#19181b" cx="0.00" cy="0.00" transform="translate(283.79,336.35) rotate(0.7)" rx="13.35" ry="13.16"/>
<ellipse fill="#19181b" cx="0.00" cy="0.00" transform="translate(317.35,336.34) rotate(0.4)" rx="13.36" ry="13.16"/>
<ellipse fill="#19181b" cx="0.00" cy="0.00" transform="translate(350.87,336.34) rotate(-0.4)" rx="13.36" ry="13.15"/>
<circle fill="#19181b" cx="431.30" cy="336.35" r="13.25"/>
<circle fill="#19181b" cx="465.02" cy="336.35" r="13.13"/>
<circle fill="#19181b" cx="498.55" cy="336.35" r="13.14"/>
<ellipse fill="#19181b" cx="0.00" cy="0.00" transform="translate(701.55,336.35) rotate(-1.6)" rx="13.36" ry="13.15"/>
<circle fill="#19181b" cx="735.11" cy="336.34" r="13.26"/>
<ellipse fill="#19181b" cx="0.00" cy="0.00" transform="translate(768.63,336.35) rotate(-1.5)" rx="13.36" ry="13.15"/>
<ellipse fill="#19181b" cx="0.00" cy="0.00" transform="translate(1119.30,336.35) rotate(-1.5)" rx="13.36" ry="13.16"/>
<ellipse fill="#19181b" cx="0.00" cy="0.00" transform="translate(1152.86,336.34) rotate(-0.4)" rx="13.36" ry="13.15"/>
<ellipse fill="#19181b" cx="0.00" cy="0.00" transform="translate(1186.39,336.35) rotate(-0.8)" rx="13.36" ry="13.15"/>
<circle fill="#19181b" cx="13.55" cy="368.42" r="13.37"/>
<ellipse fill="#19181b" cx="0.00" cy="0.00" transform="translate(47.26,368.41) rotate(89.4)" rx="13.37" ry="13.14"/>
<ellipse fill="#19181b" cx="0.00" cy="0.00" transform="translate(80.79,368.42) rotate(89.7)" rx="13.37" ry="13.15"/>
<circle fill="#19181b" cx="283.79" cy="368.43" r="13.37"/>
<circle fill="#19181b" cx="317.34" cy="368.42" r="13.38"/>
<circle fill="#19181b" cx="350.87" cy="368.41" r="13.38"/>
<circle fill="#19181b" cx="431.30" cy="368.42" r="13.37"/>
<ellipse fill="#19181b" cx="0.00" cy="0.00" transform="translate(465.01,368.41) rotate(89.4)" rx="13.37" ry="13.14"/>
<ellipse fill="#19181b" cx="0.00" cy="0.00" transform="translate(498.54,368.42) rotate(90.0)" rx="13.36" ry="13.15"/>
<circle fill="#19181b" cx="532.26" cy="368.42" r="13.37"/>
<circle fill="#19181b" cx="565.78" cy="368.43" r="13.37"/>
<circle fill="#19181b" cx="599.33" cy="368.42" r="13.38"/>
<circle fill="#19181b" cx="632.86" cy="368.42" r="13.38"/>
<circle fill="#19181b" cx="666.39" cy="368.42" r="13.38"/>
<circle fill="#19181b" cx="701.55" cy="368.43" r="13.37"/>
<circle fill="#19181b" cx="735.10" cy="368.41" r="13.38"/>
<circle fill="#19181b" cx="768.63" cy="368.41" r="13.38"/>
<circle fill="#19181b" cx="849.05" cy="368.42" r="13.37"/>
<ellipse fill="#19181b" cx="0.00" cy="0.00" transform="translate(882.77,368.41) rotate(89.1)" rx="13.37" ry="13.14"/>
<ellipse fill="#19181b" cx="0.00" cy="0.00" transform="translate(916.30,368.41) rotate(91.3)" rx="13.36" ry="13.15"/>
<circle fill="#19181b" cx="950.02" cy="368.42" r="13.37"/>
<circle fill="#19181b" cx="983.54" cy="368.43" r="13.37"/>
<circle fill="#19181b" cx="1017.09" cy="368.42" r="13.38"/>
<circle fill="#19181b" cx="1050.62" cy="368.41" r="13.38"/>
<circle fill="#19181b" cx="1084.14" cy="368.42" r="13.38"/>
<circle fill="#19181b" cx="1119.30" cy="368.43" r="13.38"/>
<circle fill="#19181b" cx="1152.86" cy="368.41" r="13.38"/>
<circle fill="#19181b" cx="1186.39" cy="368.42" r="13.38"/>
<circle fill="#19181b" cx="13.54" cy="400.66" r="13.37"/>
<ellipse fill="#19181b" cx="0.00" cy="0.00" transform="translate(47.27,400.65) rotate(88.4)" rx="13.37" ry="13.14"/>
<ellipse fill="#19181b" cx="0.00" cy="0.00" transform="translate(80.79,400.66) rotate(90.1)" rx="13.36" ry="13.15"/>
<circle fill="#19181b" cx="283.79" cy="400.66" r="13.38"/>
<circle fill="#19181b" cx="317.35" cy="400.65" r="13.37"/>
<circle fill="#19181b" cx="350.87" cy="400.66" r="13.37"/>
<circle fill="#19181b" cx="431.30" cy="400.66" r="13.37"/>
<ellipse fill="#19181b" cx="0.00" cy="0.00" transform="translate(465.02,400.65) rotate(89.8)" rx="13.37" ry="13.14"/>
<ellipse fill="#19181b" cx="0.00" cy="0.00" transform="translate(498.54,400.66) rotate(89.8)" rx="13.36" ry="13.15"/>
<circle fill="#19181b" cx="532.25" cy="400.66" r="13.37"/>
<circle fill="#19181b" cx="565.77" cy="400.66" r="13.37"/>
<circle fill="#19181b" cx="599.34" cy="400.65" r="13.37"/>
<circle fill="#19181b" cx="632.86" cy="400.66" r="13.37"/>
<circle fill="#19181b" cx="666.38" cy="400.66" r="13.37"/>
<circle fill="#19181b" cx="701.55" cy="400.66" r="13.38"/>
<circle fill="#19181b" cx="735.11" cy="400.66" r="13.37"/>
<circle fill="#19181b" cx="768.63" cy="400.66" r="13.37"/>
<circle fill="#19181b" cx="849.06" cy="400.66" r="13.37"/>
<ellipse fill="#19181b" cx="0.00" cy="0.00" transform="translate(882.79,400.66) rotate(89.5)" rx="13.37" ry="13.14"/>
<ellipse fill="#19181b" cx="0.00" cy="0.00" transform="translate(916.30,400.66) rotate(89.6)" rx="13.36" ry="13.15"/>
<circle fill="#19181b" cx="950.01" cy="400.66" r="13.37"/>
<circle fill="#19181b" cx="983.54" cy="400.66" r="13.38"/>
<circle fill="#19181b" cx="1017.10" cy="400.65" r="13.37"/>
<circle fill="#19181b" cx="1050.61" cy="400.66" r="13.37"/>
<circle fill="#19181b" cx="1084.14" cy="400.66" r="13.37"/>
<circle fill="#19181b" cx="1119.31" cy="400.66" r="13.38"/>
<circle fill="#19181b" cx="1152.86" cy="400.66" r="13.37"/>
<circle fill="#19181b" cx="1186.38" cy="400.66" r="13.37"/>
<ellipse fill="#19181b" cx="0.00" cy="0.00" transform="translate(13.55,432.72) rotate(-1.6)" rx="13.36" ry="13.14"/>
<circle fill="#19181b" cx="47.27" cy="432.72" r="13.13"/>
<circle fill="#19181b" cx="80.80" cy="432.72" r="13.14"/>
<ellipse fill="#19181b" cx="0.00" cy="0.00" transform="translate(283.80,432.73) rotate(-1.0)" rx="13.36" ry="13.14"/>
<ellipse fill="#19181b" cx="0.00" cy="0.00" transform="translate(317.35,432.72) rotate(1.0)" rx="13.36" ry="13.14"/>
<ellipse fill="#19181b" cx="350.87" cy="432.73" rx="13.36" ry="13.14"/>
<circle fill="#19181b" cx="431.30" cy="432.72" r="13.25"/>
<circle fill="#19181b" cx="465.03" cy="432.72" r="13.13"/>
<circle fill="#19181b" cx="498.55" cy="432.73" r="13.14"/>
<ellipse fill="#19181b" cx="532.25" cy="432.72" rx="13.35" ry="13.15"/>
<circle fill="#19181b" cx="565.78" cy="432.72" r="13.25"/>
<ellipse fill="#19181b" cx="0.00" cy="0.00" transform="translate(599.34,432.72) rotate(0.8)" rx="13.37" ry="13.14"/>
<ellipse fill="#19181b" cx="632.86" cy="432.73" rx="13.36" ry="13.14"/>
<ellipse fill="#19181b" cx="0.00" cy="0.00" transform="translate(666.38,432.73) rotate(-0.2)" rx="13.37" ry="13.14"/>
<ellipse fill="#19181b" cx="0.00" cy="0.00" transform="translate(701.56,432.73) rotate(-0.8)" rx="13.37" ry="13.14"/>
<ellipse fill="#19181b" cx="0.00" cy="0.00" transform="translate(735.11,432.72) rotate(0.9)" rx="13.36" ry="13.15"/>
<circle fill="#19181b" cx="849.06" cy="432.72" r="13.25"/>
<circle fill="#19181b" cx="882.79" cy="432.72" r="13.13"/>
<circle fill="#19181b" cx="916.31" cy="432.72" r="13.14"/>
<ellipse fill="#19181b" cx="0.00" cy="0.00" transform="translate(950.01,432.72) rotate(0.1)" rx="13.35" ry="13.15"/>
<ellipse fill="#19181b" cx="0.00" cy="0.00" transform="translate(983.55,432.73) rotate(-0.5)" rx="13.36" ry="13.14"/>
<ellipse fill="#19181b" cx="0.00" cy="0.00" transform="translate(1017.10,432.73) rotate(1.0)" rx="13.36" ry="13.15"/>
<ellipse fill="#19181b" cx="0.00" cy="0.00" transform="translate(1050.62,432.73) rotate(0.1)" rx="13.36" ry="13.14"/>
<ellipse fill="#19181b" cx="0.00" cy="0.00" transform="translate(1084.14,432.73) rotate(0.1)" rx="13.37" ry="13.14"/>
<ellipse fill="#19181b" cx="0.00" cy="0.00" transform="translate(1119.32,432.73) rotate(-0.4)" rx="13.37" ry="13.14"/>
<ellipse fill="#19181b" cx="0.00" cy="0.00" transform="translate(1152.86,432.73) rotate(0.2)" rx="13.36" ry="13.15"/>
</svg>
