<?xml version="1.0" encoding="UTF-8" standalone="no"?>
<!DOCTYPE svg PUBLIC "-//W3C//DTD SVG 1.1//EN" "http://www.w3.org/Graphics/SVG/1.1/DTD/svg11.dtd">
<svg xmlns="http://www.w3.org/2000/svg" version="1.1" viewBox="0.00 0.00 1200.00 616.00">
<circle fill="#19181b" cx="958.37" cy="16.04" r="13.38"/>
<circle fill="#19181b" cx="525.51" cy="20.25" r="13.36"/>
<circle fill="#19181b" cx="255.83" cy="22.76" r="13.38"/>
<circle fill="#19181b" cx="1032.69" cy="57.02" r="13.37"/>
<circle fill="#19181b" cx="923.15" cy="59.09" r="13.38"/>
<circle fill="#19181b" cx="193.25" cy="62.40" r="13.38"/>
<circle fill="#19181b" cx="286.18" cy="63.98" r="13.37"/>
<circle fill="#19181b" cx="486.18" cy="68.35" r="13.37"/>
<circle fill="#19181b" cx="239.16" cy="68.95" r="13.37"/>
<circle fill="#19181b" cx="868.66" cy="70.59" r="13.38"/>
<circle fill="#19181b" cx="548.47" cy="71.63" r="13.37"/>
<circle fill="#19181b" cx="961.65" cy="71.77" r="13.37"/>
<circle fill="#19181b" cx="698.56" cy="72.20" r="13.37"/>
<circle fill="#19181b" cx="337.90" cy="73.84" r="13.38"/>
<ellipse fill="#19181b" cx="0.00" cy="0.00" transform="translate(47.27,111.51) rotate(91.0)" rx="13.35" ry="13.14"/>
<circle fill="#19181b" cx="80.80" cy="111.51" r="13.25"/>
<circle fill="#19181b" cx="114.50" cy="111.51" r="13.37"/>
<circle fill="#19181b" cx="148.02" cy="111.51" r="13.36"/>
<circle fill="#19181b" cx="181.58" cy="111.51" r="13.37"/>
<circle fill="#19181b" cx="215.10" cy="111.51" r="13.38"/>
<circle fill="#19181b" cx="248.62" cy="111.51" r="13.38"/>
<circle fill="#19181b" cx="283.79" cy="111.51" r="13.36"/>
<circle fill="#19181b" cx="317.35" cy="111.51" r="13.38"/>
<circle fill="#19181b" cx="431.30" cy="111.51" r="13.36"/>
<circle fill="#19181b" cx="465.03" cy="111.51" r="13.25"/>
<circle fill="#19181b" cx="498.55" cy="111.51" r="13.25"/>
<circle fill="#19181b" cx="532.25" cy="111.51" r="13.36"/>
<circle fill="#19181b" cx="565.78" cy="111.51" r="13.36"/>
<circle fill="#19181b" cx="599.34" cy="111.51" r="13.37"/>
<circle fill="#19181b" cx="632.86" cy="111.51" r="13.37"/>
<circle fill="#19181b" cx="666.39" cy="111.51" r="13.38"/>
<circle fill="#19181b" cx="701.55" cy="111.52" r="13.37"/>
<circle fill="#19181b" cx="735.10" cy="111.51" r="13.38"/>
<circle fill="#19181b" cx="882.79" cy="111.51" r="13.25"/>
<circle fill="#19181b" cx="916.31" cy="111.51" r="13.25"/>
<circle fill="#19181b" cx="950.01" cy="111.51" r="13.37"/>
<circle fill="#19181b" cx="983.54" cy="111.51" r="13.36"/>
<circle fill="#19181b" cx="1017.10" cy="111.51" r="13.37"/>
<circle fill="#19181b" cx="1050.62" cy="111.51" r="13.38"/>
<circle fill="#19181b" cx="1084.14" cy="111.52" r="13.38"/>
<circle fill="#19181b" cx="1119.31" cy="111.52" r="13.37"/>
<circle fill="#19181b" cx="1152.86" cy="111.51" r="13.38"/>
<circle fill="#19181b" cx="1186.39" cy="111.51" r="13.38"/>
<circle fill="#19181b" cx="13.54" cy="143.60" r="13.25"/>
<circle fill="#19181b" cx="47.26" cy="143.60" r="13.13"/>
<circle fill="#19181b" cx="80.79" cy="143.59" r="13.13"/>
<ellipse fill="#19181b" cx="0.00" cy="0.00" transform="translate(114.51,143.60) rotate(1.5)" rx="13.35" ry="13.16"/>
<circle fill="#19181b" cx="148.02" cy="143.60" r="13.25"/>
<ellipse fill="#19181b" cx="0.00" cy="0.00" transform="translate(181.58,143.58) rotate(-0.7)" rx="13.36" ry="13.15"/>
<ellipse fill="#19181b" cx="0.00" cy="0.00" transform="translate(215.11,143.58) rotate(0.3)" rx="13.36" ry="13.15"/>
<ellipse fill="#19181b" cx="0.00" cy="0.00" transform="translate(248.62,143.58) rotate(-0.9)" rx="13.36" ry="13.15"/>
<ellipse fill="#19181b" cx="283.79" cy="143.60" rx="13.35" ry="13.16"/>
<ellipse fill="#19181b" cx="0.00" cy="0.00" transform="translate(317.35,143.58) rotate(0.8)" rx="13.36" ry="13.15"/>
<ellipse fill="#19181b" cx="0.00" cy="0.00" transform="translate(350.87,143.58) rotate(-0.5)" rx="13.36" ry="13.15"/>
<circle fill="#19181b" cx="431.30" cy="143.60" r="13.25"/>
<circle fill="#19181b" cx="465.02" cy="143.59" r="13.13"/>
<circle fill="#19181b" cx="498.55" cy="143.59" r="13.14"/>
<circle fill="#19181b" cx="532.26" cy="143.60" r="13.25"/>
<circle fill="#19181b" cx="565.78" cy="143.60" r="13.25"/>
<ellipse fill="#19181b" cx="0.00" cy="0.00" transform="translate(599.33,143.58) rotate(-0.6)" rx="13.36" ry="13.15"/>
<circle fill="#19181b" cx="632.86" cy="143.58" r="13.26"/>
<ellipse fill="#19181b" cx="0.00" cy="0.00" transform="translate(666.39,143.58) rotate(-0.5)" rx="13.36" ry="13.15"/>
<ellipse fill="#19181b" cx="0.00" cy="0.00" transform="translate(701.55,143.60) rotate(-0.9)" rx="13.36" ry="13.16"/>
<ellipse fill="#19181b" cx="0.00" cy="0.00" transform="translate(735.11,143.58) rotate(0.4)" rx="13.37" ry="13.15"/>
<ellipse fill="#19181b" cx="0.00" cy="0.00" transform="translate(768.63,143.58) rotate(-0.8)" rx="13.36" ry="13.15"/>
<circle fill="#19181b" cx="849.05" cy="143.60" r="13.25"/>
<circle fill="#19181b" cx="882.78" cy="143.59" r="13.13"/>
<circle fill="#19181b" cx="916.31" cy="143.59" r="13.14"/>
<circle fill="#19181b" cx="950.02" cy="143.60" r="13.25"/>
<ellipse fill="#19181b" cx="0.00" cy="0.00" transform="translate(983.54,143.60) rotate(-0.7)" rx="13.36" ry="13.16"/>
<ellipse fill="#19181b" cx="0.00" cy="0.00" transform="translate(1017.10,143.58) rotate(1.0)" rx="13.36" ry="13.15"/>
<ellipse fill="#19181b" cx="0.00" cy="0.00" transform="translate(1050.62,143.58) rotate(-0.9)" rx="13.36" ry="13.15"/>
<ellipse fill="#19181b" cx="0.00" cy="0.00" transform="translate(1084.15,143.58) rotate(-0.4)" rx="13.36" ry="13.15"/>
<circle fill="#19181b" cx="1119.30" cy="143.60" r="13.26"/>
<circle fill="#19181b" cx="1152.86" cy="143.58" r="13.26"/>
<ellipse fill="#19181b" cx="0.00" cy="0.00" transform="translate(1186.39,143.58) rotate(-1.0)" rx="13.36" ry="13.15"/>
<circle fill="#19181b" cx="13.55" cy="175.66" r="13.37"/>
<ellipse fill="#19181b" cx="0.00" cy="0.00" transform="translate(47.26,175.66) rotate(89.8)" rx="13.36" ry="13.14"/>
<ellipse fill="#19181b" cx="0.00" cy="0.00" transform="translate(80.79,175.66) rotate(90.4)" rx="13.37" ry="13.14"/>
<circle fill="#19181b" cx="114.50" cy="175.66" r="13.38"/>
<circle fill="#19181b" cx="148.03" cy="175.67" r="13.37"/>
<circle fill="#19181b" cx="181.58" cy="175.66" r="13.37"/>
<circle fill="#19181b" cx="215.10" cy="175.66" r="13.38"/>
<circle fill="#19181b" cx="248.63" cy="175.66" r="13.38"/>
<circle fill="#19181b" cx="283.79" cy="175.67" r="13.37"/>
<circle fill="#19181b" cx="317.35" cy="175.66" r="13.38"/>
<circle fill="#19181b" cx="350.87" cy="175.66" r="13.38"/>
<circle fill="#19181b" cx="431.30" cy="175.66" r="13.37"/>
<ellipse fill="#19181b" cx="0.00" cy="0.00" transform="translate(465.01,175.66) rotate(89.7)" rx="13.36" ry="13.14"/>
<ellipse fill="#19181b" cx="0.00" cy="0.00" transform="translate(498.55,175.66) rotate(91.0)" rx="13.36" ry="13.15"/>
<circle fill="#19181b" cx="532.26" cy="175.66" r="13.38"/>
<circle fill="#19181b" cx="565.79" cy="175.67" r="13.37"/>
<circle fill="#19181b" cx="599.33" cy="175.66" r="13.38"/>
<circle fill="#19181b" cx="632.86" cy="175.66" r="13.37"/>
<circle fill="#19181b" cx="666.39" cy="175.66" r="13.38"/>
<circle fill="#19181b" cx="701.55" cy="175.67" r="13.37"/>
<circle fill="#19181b" cx="735.11" cy="175.66" r="13.38"/>
<circle fill="#19181b" cx="768.63" cy="175.66" r="13.38"/>
<circle fill="#19181b" cx="849.06" cy="175.66" r="13.37"/>
<ellipse fill="#19181b" cx="0.00" cy="0.00" transform="translate(882.77,175.66) rotate(89.9)" rx="13.37" ry="13.14"/>
<ellipse fill="#19181b" cx="0.00" cy="0.00" transform="translate(916.30,175.66) rotate(90.7)" rx="13.36" ry="13.15"/>
<circle fill="#19181b" cx="950.02" cy="175.67" r="13.37"/>
<circle fill="#19181b" cx="983.54" cy="175.67" r="13.37"/>
<circle fill="#19181b" cx="1017.09" cy="175.66" r="13.38"/>
<circle fill="#19181b" cx="1050.62" cy="175.65" r="13.38"/>
<circle fill="#19181b" cx="1084.14" cy="175.66" r="13.37"/>
<circle fill="#19181b" cx="1119.30" cy="175.67" r="13.37"/>
<circle fill="#19181b" cx="1152.86" cy="175.66" r="13.37"/>
<circle fill="#19181b" cx="1186.39" cy="175.66" r="13.38"/>
<circle fill="#19181b" cx="13.54" cy="207.89" r="13.37"/>
<ellipse fill="#19181b" cx="0.00" cy="0.00" transform="translate(47.27,207.89) rotate(90.4)" rx="13.37" ry="13.14"/>
<ellipse fill="#19181b" cx="0.00" cy="0.00" transform="translate(80.79,207.89) rotate(89.6)" rx="13.36" ry="13.15"/>
<circle fill="#19181b" cx="283.79" cy="207.90" r="13.38"/>
<circle fill="#19181b" cx="317.35" cy="207.89" r="13.37"/>
<circle fill="#19181b" cx="350.87" cy="207.89" r="13.37"/>
<circle fill="#19181b" cx="431.30" cy="207.89" r="13.37"/>
<ellipse fill="#19181b" cx="0.00" cy="0.00" transform="translate(465.02,207.89) rotate(89.6)" rx="13.37" ry="13.14"/>
<ellipse fill="#19181b" cx="0.00" cy="0.00" transform="translate(498.55,207.90) rotate(89.0)" rx="13.36" ry="13.15"/>
<circle fill="#19181b" cx="701.55" cy="207.90" r="13.38"/>
<circle fill="#19181b" cx="735.11" cy="207.90" r="13.37"/>
<circle fill="#19181b" cx="768.63" cy="207.89" r="13.37"/>
<circle fill="#19181b" cx="849.05" cy="207.89" r="13.37"/>
<ellipse fill="#19181b" cx="0.00" cy="0.00" transform="translate(882.78,207.89) rotate(89.3)" rx="13.36" ry="13.15"/>
<ellipse fill="#19181b" cx="0.00" cy="0.00" transform="translate(916.30,207.90) rotate(88.9)" rx="13.36" ry="13.15"/>
<circle fill="#19181b" cx="13.54" cy="239.96" r="13.25"/>
<circle fill="#19181b" cx="47.27" cy="239.96" r="13.13"/>
<circle fill="#19181b" cx="80.79" cy="239.96" r="13.13"/>
<circle fill="#19181b" cx="114.50" cy="239.96" r="13.25"/>
<circle fill="#19181b" cx="148.02" cy="239.96" r="13.25"/>
<ellipse fill="#19181b" cx="0.00" cy="0.00" transform="translate(181.58,239.96) rotate(-0.5)" rx="13.37" ry="13.14"/>
<ellipse fill="#19181b" cx="0.00" cy="0.00" transform="translate(215.10,239.97) rotate(0.6)" rx="13.36" ry="13.15"/>
<ellipse fill="#19181b" cx="248.63" cy="239.97" rx="13.37" ry="13.14"/>
<ellipse fill="#19181b" cx="0.00" cy="0.00" transform="translate(283.80,239.96) rotate(-1.1)" rx="13.36" ry="13.14"/>
<ellipse fill="#19181b" cx="0.00" cy="0.00" transform="translate(317.35,239.97) rotate(0.6)" rx="13.37" ry="13.15"/>
<ellipse fill="#19181b" cx="0.00" cy="0.00" transform="translate(350.88,239.97) rotate(-0.5)" rx="13.37" ry="13.14"/>
<circle fill="#19181b" cx="431.30" cy="239.96" r="13.25"/>
<circle fill="#19181b" cx="465.03" cy="239.96" r="13.13"/>
<circle fill="#19181b" cx="498.55" cy="239.97" r="13.13"/>
<circle fill="#19181b" cx="532.25" cy="239.96" r="13.25"/>
<ellipse fill="#19181b" cx="0.00" cy="0.00" transform="translate(565.78,239.96) rotate(0.9)" rx="13.35" ry="13.15"/>
<ellipse fill="#19181b" cx="0.00" cy="0.00" transform="translate(599.34,239.96) rotate(-0.2)" rx="13.37" ry="13.14"/>
<ellipse fill="#19181b" cx="0.00" cy="0.00" transform="translate(632.86,239.97) rotate(0.6)" rx="13.36" ry="13.15"/>
<ellipse fill="#19181b" cx="0.00" cy="0.00" transform="translate(666.38,239.97) rotate(0.4)" rx="13.37" ry="13.14"/>
<ellipse fill="#19181b" cx="701.55" cy="239.97" rx="13.36" ry="13.14"/>
<ellipse fill="#19181b" cx="0.00" cy="0.00" transform="translate(735.11,239.97) rotate(0.9)" rx="13.36" ry="13.15"/>
<ellipse fill="#19181b" cx="768.63" cy="239.97" rx="13.37" ry="13.14"/>
<circle fill="#19181b" cx="849.06" cy="239.96" r="13.25"/>
<circle fill="#19181b" cx="882.79" cy="239.96" r="13.13"/>
<circle fill="#19181b" cx="916.31" cy="239.97" r="13.13"/>
<circle fill="#19181b" cx="950.01" cy="239.96" r="13.25"/>
<ellipse fill="#19181b" cx="0.00" cy="0.00" transform="translate(983.54,239.96) rotate(-0.3)" rx="13.36" ry="13.14"/>
<ellipse fill="#19181b" cx="0.00" cy="0.00" transform="translate(1017.10,239.97) rotate(0.5)" rx="13.37" ry="13.15"/>
<ellipse fill="#19181b" cx="0.00" cy="0.00" transform="translate(1050.62,239.97) rotate(0.3)" rx="13.36" ry="13.15"/>
<ellipse fill="#19181b" cx="1084.14" cy="239.97" rx="13.37" ry="13.14"/>
<ellipse fill="#19181b" cx="0.00" cy="0.00" transform="translate(1119.32,239.97) rotate(-0.4)" rx="13.37" ry="13.14"/>
<ellipse fill="#19181b" cx="0.00" cy="0.00" transform="translate(1152.86,239.97) rotate(0.5)" rx="13.36" ry="13.15"/>
<circle fill="#19181b" cx="13.54" cy="272.03" r="13.36"/>
<ellipse fill="#19181b" cx="0.00" cy="0.00" transform="translate(47.27,272.04) rotate(88.7)" rx="13.35" ry="13.14"/>
<ellipse fill="#19181b" cx="0.00" cy="0.00" transform="translate(80.79,272.04) rotate(88.3)" rx="13.35" ry="13.15"/>
<circle fill="#19181b" cx="114.50" cy="272.03" r="13.37"/>
<circle fill="#19181b" cx="148.02" cy="272.03" r="13.37"/>
<circle fill="#19181b" cx="181.58" cy="272.04" r="13.37"/>
<circle fill="#19181b" cx="215.11" cy="272.04" r="13.37"/>
<circle fill="#19181b" cx="248.62" cy="272.04" r="13.37"/>
<circle fill="#19181b" cx="283.79" cy="272.04" r="13.37"/>
<circle fill="#19181b" cx="317.35" cy="272.04" r="13.37"/>
<circle fill="#19181b" cx="350.87" cy="272.04" r="13.37"/>
<circle fill="#19181b" cx="431.29" cy="272.03" r="13.37"/>
<circle fill="#19181b" cx="465.02" cy="272.04" r="13.25"/>
<circle fill="#19181b" cx="498.55" cy="272.04" r="13.25"/>
<circle fill="#19181b" cx="532.25" cy="272.03" r="13.37"/>
<circle fill="#19181b" cx="565.78" cy="272.03" r="13.37"/>
<circle fill="#19181b" cx="599.34" cy="272.04" r="13.37"/>
<circle fill="#19181b" cx="632.86" cy="272.04" r="13.37"/>
<circle fill="#19181b" cx="666.39" cy="272.04" r="13.37"/>
<circle fill="#19181b" cx="701.55" cy="272.04" r="13.37"/>
<circle fill="#19181b" cx="735.11" cy="272.04" r="13.37"/>
<circle fill="#19181b" cx="849.05" cy="272.03" r="13.36"/>
<ellipse fill="#19181b" cx="0.00" cy="0.00" transform="translate(882.79,272.04) rotate(88.8)" rx="13.35" ry="13.15"/>
<circle fill="#19181b" cx="916.30" cy="272.04" r="13.25"/>
<circle fill="#19181b" cx="950.01" cy="272.03" r="13.36"/>
<circle fill="#19181b" cx="983.54" cy="272.03" r="13.37"/>
<circle fill="#19181b" cx="1017.10" cy="272.04" r="13.37"/>
<circle fill="#19181b" cx="1050.62" cy="272.04" r="13.37"/>
<circle fill="#19181b" cx="1084.15" cy="272.04" r="13.37"/>
<circle fill="#19181b" cx="1119.31" cy="272.04" r="13.37"/>
<circle fill="#19181b" cx="1152.87" cy="272.04" r="13.37"/>
<circle fill="#19181b" cx="1186.39" cy="272.04" r="13.37"/>
<circle fill="#19181b" cx="13.54" cy="304.27" r="13.37"/>
<ellipse fill="#19181b" cx="0.00" cy="0.00" transform="translate(47.27,304.27) rotate(89.3)" rx="13.36" ry="13.14"/>
<circle fill="#19181b" cx="80.80" cy="304.27" r="13.25"/>
<circle fill="#19181b" cx="114.50" cy="304.27" r="13.37"/>
<circle fill="#19181b" cx="148.02" cy="304.27" r="13.36"/>
<circle fill="#19181b" cx="181.58" cy="304.27" r="13.37"/>
<circle fill="#19181b" cx="215.10" cy="304.27" r="13.38"/>
<circle fill="#19181b" cx="248.63" cy="304.27" r="13.38"/>
<circle fill="#19181b" cx="283.79" cy="304.28" r="13.36"/>
<circle fill="#19181b" cx="317.35" cy="304.27" r="13.38"/>
<circle fill="#19181b" cx="350.87" cy="304.27" r="13.38"/>
<circle fill="#19181b" cx="431.30" cy="304.27" r="13.37"/>
<ellipse fill="#19181b" cx="0.00" cy="0.00" transform="translate(465.03,304.27) rotate(89.7)" rx="13.36" ry="13.15"/>
<circle fill="#19181b" cx="498.55" cy="304.27" r="13.25"/>
<circle fill="#19181b" cx="532.26" cy="304.27" r="13.36"/>
<circle fill="#19181b" cx="565.78" cy="304.27" r="13.36"/>
<circle fill="#19181b" cx="599.34" cy="304.27" r="13.37"/>
<circle fill="#19181b" cx="632.86" cy="304.27" r="13.38"/>
<circle fill="#19181b" cx="666.39" cy="304.27" r="13.38"/>
<circle fill="#19181b" cx="701.55" cy="304.28" r="13.37"/>
<circle fill="#19181b" cx="735.10" cy="304.27" r="13.38"/>
<circle fill="#19181b" cx="768.63" cy="304.27" r="13.38"/>
<circle fill="#19181b" cx="882.79" cy="304.27" r="13.25"/>
<circle fill="#19181b" cx="916.30" cy="304.27" r="13.25"/>
<circle fill="#19181b" cx="950.01" cy="304.27" r="13.36"/>
<circle fill="#19181b" cx="983.54" cy="304.27" r="13.36"/>
<circle fill="#19181b" cx="1017.09" cy="304.27" r="13.38"/>
<circle fill="#19181b" cx="1050.62" cy="304.27" r="13.38"/>
<circle fill="#19181b" cx="1084.14" cy="304.27" r="13.38"/>
<circle fill="#19181b" cx="1119.31" cy="304.28" r="13.37"/>
<circle fill="#19181b" cx="1152.86" cy="304.27" r="13.38"/>
<circle fill="#19181b" cx="1186.39" cy="304.27" r="13.38"/>
<circle fill="#19181b" cx="13.54" cy="336.35" r="13.25"/>
<circle fill="#19181b" cx="47.26" cy="336.36" r="13.13"/>
<circle fill="#19181b" cx="80.79" cy="336.35" r="13.13"/>
<ellipse fill="#19181b" cx="0.00" cy="0.00" transform="translate(283.79,336.35) rotate(0.7)" rx="13.35" ry="13.16"/>
<ellipse fill="#19181b" cx="0.00" cy="0.00" transform="translate(317.35,336.34) rotate(0.4)" rx="13.36" ry="13.16"/>
<ellipse fill="#19181b" cx="0.00" cy="0.00" transform="translate(350.87,336.34) rotate(-0.4)" rx="13.36" ry="13.15"/>
<circle fill="#19181b" cx="431.30" cy="336.35" r="13.25"/>
<circle fill="#19181b" cx="465.02" cy="336.35" r="13.13"/>
<circle fill="#19181b" cx="498.55" cy="336.35" r="13.14"/>
<ellipse fill="#19181b" cx="0.00" cy="0.00" transform="translate(701.55,336.35) rotate(-1.6)" rx="13.36" ry="13.15"/>
<circle fill="#19181b" cx="735.11" cy="336.34" r="13.26"/>
<ellipse fill="#19181b" cx="0.00" cy="0.00" transform="translate(768.63,336.35) rotate(-1.5)" rx="13.36" ry="13.15"/>
<ellipse fill="#19181b" cx="0.00" cy="0.00" transform="translate(1119.30,336.35) rotate(-1.5)" rx="13.36" ry="13.16"/>
<ellipse fill="#19181b" cx="0.00" cy="0.00" transform="translate(1152.86,336.34) rotate(-0.4)" rx="13.36" ry="13.15"/>
<ellipse fill="#19181b" cx="0.00" cy="0.00" transform="translate(1186.39,336.35) rotate(-0.7)" rx="13.36" ry="13.15"/>
<circle fill="#19181b" cx="13.55" cy="368.42" r="13.37"/>
<ellipse fill="#19181b" cx="0.00" cy="0.00" transform="translate(47.26,368.41) rotate(89.4)" rx="13.37" ry="13.14"/>
<ellipse fill="#19181b" cx="0.00" cy="0.00" transform="translate(80.79,368.42) rotate(89.7)" rx="13.37" ry="13.15"/>
<circle fill="#19181b" cx="283.79" cy="368.43" r="13.37"/>
<circle fill="#19181b" cx="317.34" cy="368.42" r="13.38"/>
<circle fill="#19181b" cx="350.87" cy="368.41" r="13.38"/>
<circle fill="#19181b" cx="431.30" cy="368.42" r="13.37"/>
<ellipse fill="#19181b" cx="0.00" cy="0.00" transform="translate(465.01,368.41) rotate(89.4)" rx="13.37" ry="13.14"/>
<ellipse fill="#19181b" cx="0.00" cy="0.00" transform="translate(498.54,368.41) rotate(90.0)" rx="13.36" ry="13.15"/>
<circle fill="#19181b" cx="532.26" cy="368.42" r="13.37"/>
<circle fill="#19181b" cx="565.78" cy="368.43" r="13.37"/>
<circle fill="#19181b" cx="599.33" cy="368.42" r="13.38"/>
<circle fill="#19181b" cx="632.86" cy="368.42" r="13.38"/>
<circle fill="#19181b" cx="666.39" cy="368.42" r="13.38"/>
<circle fill="#19181b" cx="701.55" cy="368.43" r="13.37"/>
<circle fill="#19181b" cx="735.10" cy="368.41" r="13.38"/>
<circle fill="#19181b" cx="768.63" cy="368.42" r="13.38"/>
<circle fill="#19181b" cx="849.05" cy="368.42" r="13.37"/>
<ellipse fill="#19181b" cx="0.00" cy="0.00" transform="translate(882.77,368.41) rotate(89.1)" rx="13.37" ry="13.14"/>
<ellipse fill="#19181b" cx="0.00" cy="0.00" transform="translate(916.30,368.41) rotate(91.3)" rx="13.36" ry="13.15"/>
<circle fill="#19181b" cx="950.02" cy="368.42" r="13.37"/>
<circle fill="#19181b" cx="983.54" cy="368.43" r="13.37"/>
<circle fill="#19181b" cx="1017.09" cy="368.42" r="13.38"/>
<circle fill="#19181b" cx="1050.62" cy="368.41" r="13.38"/>
<circle fill="#19181b" cx="1084.14" cy="368.42" r="13.38"/>
<circle fill="#19181b" cx="1119.30" cy="368.43" r="13.38"/>
<circle fill="#19181b" cx="1152.86" cy="368.41" r="13.38"/>
<circle fill="#19181b" cx="1186.39" cy="368.42" r="13.38"/>
<circle fill="#19181b" cx="13.54" cy="400.66" r="13.37"/>
<ellipse fill="#19181b" cx="0.00" cy="0.00" transform="translate(47.27,400.65) rotate(88.4)" rx="13.37" ry="13.14"/>
<ellipse fill="#19181b" cx="0.00" cy="0.00" transform="translate(80.79,400.66) rotate(90.1)" rx="13.36" ry="13.15"/>
<circle fill="#19181b" cx="283.79" cy="400.66" r="13.38"/>
<circle fill="#19181b" cx="317.35" cy="400.65" r="13.37"/>
<circle fill="#19181b" cx="350.87" cy="400.66" r="13.37"/>
<circle fill="#19181b" cx="431.30" cy="400.66" r="13.37"/>
<ellipse fill="#19181b" cx="0.00" cy="0.00" transform="translate(465.02,400.65) rotate(89.8)" rx="13.37" ry="13.14"/>
<ellipse fill="#19181b" cx="0.00" cy="0.00" transform="translate(498.54,400.66) rotate(89.8)" rx="13.36" ry="13.15"/>
<circle fill="#19181b" cx="532.25" cy="400.66" r="13.37"/>
<circle fill="#19181b" cx="565.77" cy="400.66" r="13.37"/>
<circle fill="#19181b" cx="599.34" cy="400.65" r="13.37"/>
<circle fill="#19181b" cx="632.86" cy="400.66" r="13.37"/>
<circle fill="#19181b" cx="666.38" cy="400.66" r="13.37"/>
<circle fill="#19181b" cx="701.55" cy="400.66" r="13.38"/>
<circle fill="#19181b" cx="735.11" cy="400.66" r="13.37"/>
<circle fill="#19181b" cx="768.63" cy="400.66" r="13.37"/>
<circle fill="#19181b" cx="849.06" cy="400.66" r="13.37"/>
<ellipse fill="#19181b" cx="0.00" cy="0.00" transform="translate(882.79,400.66) rotate(89.5)" rx="13.37" ry="13.14"/>
<ellipse fill="#19181b" cx="0.00" cy="0.00" transform="translate(916.30,400.66) rotate(89.6)" rx="13.36" ry="13.15"/>
<circle fill="#19181b" cx="950.01" cy="400.66" r="13.37"/>
<circle fill="#19181b" cx="983.54" cy="400.66" r="13.38"/>
<circle fill="#19181b" cx="1017.10" cy="400.65" r="13.37"/>
<circle fill="#19181b" cx="1050.61" cy="400.66" r="13.37"/>
<circle fill="#19181b" cx="1084.14" cy="400.66" r="13.37"/>
<circle fill="#19181b" cx="1119.31" cy="400.67" r="13.38"/>
<circle fill="#19181b" cx="1152.86" cy="400.66" r="13.37"/>
<circle fill="#19181b" cx="1186.38" cy="400.66" r="13.37"/>
<ellipse fill="#19181b" cx="0.00" cy="0.00" transform="translate(13.55,432.72) rotate(-1.6)" rx="13.35" ry="13.14"/>
<circle fill="#19181b" cx="47.27" cy="432.72" r="13.13"/>
<circle fill="#19181b" cx="80.80" cy="432.72" r="13.14"/>
<ellipse fill="#19181b" cx="0.00" cy="0.00" transform="translate(283.80,432.73) rotate(-1.0)" rx="13.36" ry="13.14"/>
<ellipse fill="#19181b" cx="0.00" cy="0.00" transform="translate(317.35,432.72) rotate(1.0)" rx="13.36" ry="13.14"/>
<ellipse fill="#19181b" cx="350.87" cy="432.73" rx="13.36" ry="13.14"/>
<circle fill="#19181b" cx="431.30" cy="432.72" r="13.25"/>
<circle fill="#19181b" cx="465.03" cy="432.72" r="13.13"/>
<circle fill="#19181b" cx="498.55" cy="432.73" r="13.14"/>
<ellipse fill="#19181b" cx="532.25" cy="432.72" rx="13.35" ry="13.15"/>
<circle fill="#19181b" cx="565.78" cy="432.72" r="13.25"/>
<ellipse fill="#19181b" cx="0.00" cy="0.00" transform="translate(599.34,432.72) rotate(0.8)" rx="13.37" ry="13.14"/>
<ellipse fill="#19181b" cx="632.86" cy="432.73" rx="13.36" ry="13.14"/>
<ellipse fill="#19181b" cx="0.00" cy="0.00" transform="translate(666.38,432.73) rotate(-0.2)" rx="13.37" ry="13.14"/>
<ellipse fill="#19181b" cx="0.00" cy="0.00" transform="translate(701.56,432.73) rotate(-0.8)" rx="13.37" ry="13.14"/>
<ellipse fill="#19181b" cx="0.00" cy="0.00" transform="translate(735.11,432.72) rotate(0.9)" rx="13.36" ry="13.15"/>
<circle fill="#19181b" cx="849.06" cy="432.72" r="13.25"/>
<circle fill="#19181b" cx="882.79" cy="432.72" r="13.13"/>
<circle fill="#19181b" cx="916.31" cy="432.72" r="13.14"/>
<ellipse fill="#19181b" cx="0.00" cy="0.00" transform="translate(950.01,432.72) rotate(0.1)" rx="13.35" ry="13.15"/>
<ellipse fill="#19181b" cx="0.00" cy="0.00" transform="translate(983.55,432.73) rotate(-0.5)" rx="13.36" ry="13.14"/>
<ellipse fill="#19181b" cx="0.00" cy="0.00" transform="translate(1017.10,432.73) rotate(1.0)" rx="13.36" ry="13.15"/>
<ellipse fill="#19181b" cx="0.00" cy="0.00" transform="translate(1050.62,432.73) rotate(0.1)" rx="13.36" ry="13.14"/>
<ellipse fill="#19181b" cx="0.00" cy="0.00" transform="translate(1084.14,432.73) rotate(0.1)" rx="13.37" ry="13.14"/>
<ellipse fill="#19181b" cx="0.00" cy="0.00" transform="translate(1119.32,432.73) rotate(-0.4)" rx="13.37" ry="13.14"/>
<ellipse fill="#19181b" cx="0.00" cy="0.00" transform="translate(1152.86,432.73) rotate(0.2)" rx="13.36" ry="13.15"/>
<path fill="#19181b" d="
  M 0.00 567.01
  L 0.00 556.01
  C 4.52 517.39 44.55 494.88 79.50 512.52
  A 0.55 0.54 26.1 0 1 79.75 513.24
  L 74.89 523.28
  Q 74.66 523.76 74.19 523.51
  Q 61.77 516.96 48.51 519.03
  C 17.59 523.87 1.61 558.36 19.06 584.66
  C 30.23 601.51 53.15 607.62 71.81 599.50
  A 0.56 0.55 -24.6 0 1 72.52 599.76
  L 77.41 609.60
  Q 77.65 610.08 77.17 610.31
  C 59.70 618.65 38.77 616.12 23.04 605.41
  Q 3.52 592.10 0.00 567.01
  Z"
/>
<path fill="#19181b" d="
  M 195.64 560.95
  A 54.43 54.43 0.0 0 1 141.21 615.38
  A 54.43 54.43 0.0 0 1 86.78 560.95
  A 54.43 54.43 0.0 0 1 141.21 506.52
  A 54.43 54.43 0.0 0 1 195.64 560.95
  Z
  M 183.51 560.94
  A 42.31 42.31 0.0 0 0 141.20 518.63
  A 42.31 42.31 0.0 0 0 98.89 560.94
  A 42.31 42.31 0.0 0 0 141.20 603.25
  A 42.31 42.31 0.0 0 0 183.51 560.94
  Z"
/>
<path fill="#19181b" d="
  M 652.08 560.96
  A 54.43 54.43 0.0 0 1 597.65 615.39
  A 54.43 54.43 0.0 0 1 543.22 560.96
  A 54.43 54.43 0.0 0 1 597.65 506.53
  A 54.43 54.43 0.0 0 1 652.08 560.96
  Z
  M 639.93 560.94
  A 42.30 42.30 0.0 0 0 597.63 518.64
  A 42.30 42.30 0.0 0 0 555.33 560.94
  A 42.30 42.30 0.0 0 0 597.63 603.24
  A 42.30 42.30 0.0 0 0 639.93 560.94
  Z"
/>
<path fill="#19181b" d="
  M 1020.33 560.96
  A 54.43 54.43 0.0 0 1 965.90 615.39
  A 54.43 54.43 0.0 0 1 911.47 560.96
  A 54.43 54.43 0.0 0 1 965.90 506.53
  A 54.43 54.43 0.0 0 1 1020.33 560.96
  Z
  M 1008.19 560.94
  A 42.30 42.30 0.0 0 0 965.89 518.64
  A 42.30 42.30 0.0 0 0 923.59 560.94
  A 42.30 42.30 0.0 0 0 965.89 603.24
  A 42.30 42.30 0.0 0 0 1008.19 560.94
  Z"
/>
<path fill="#19181b" d="
  M 418.95 580.50
  L 377.48 580.50
  A 0.34 0.34 0.0 0 0 377.17 580.72
  L 364.36 613.78
  A 0.34 0.34 0.0 0 1 364.05 614.00
  L 352.03 614.00
  A 0.34 0.34 0.0 0 1 351.71 613.54
  L 393.19 508.22
  A 0.34 0.34 0.0 0 1 393.50 508.00
  L 403.58 508.00
  A 0.34 0.34 0.0 0 1 403.89 508.22
  L 445.14 613.54
  A 0.34 0.34 0.0 0 1 444.82 614.00
  L 432.52 614.00
  A 0.34 0.34 0.0 0 1 432.21 613.78
  L 419.26 580.72
  A 0.34 0.34 0.0 0 0 418.95 580.50
  Z
  M 398.22 523.23
  C 393.72 538.75 387.49 553.58 381.90 568.73
  Q 381.71 569.25 382.26 569.25
  L 414.73 569.25
  Q 415.26 569.25 415.08 568.75
  C 409.48 553.69 403.16 538.66 398.70 523.22
  Q 398.46 522.40 398.22 523.23
  Z"
/>
<path fill="#19181b" d="
  M 772.52 580.72
  L 759.72 613.78
  A 0.34 0.34 0.0 0 1 759.41 614.00
  L 747.39 613.99
  A 0.34 0.34 0.0 0 1 747.07 613.53
  L 788.55 508.22
  A 0.34 0.34 0.0 0 1 788.86 508.00
  L 798.93 508.00
  A 0.34 0.34 0.0 0 1 799.24 508.22
  L 840.50 613.54
  A 0.34 0.34 0.0 0 1 840.18 614.00
  L 827.87 613.99
  A 0.34 0.34 0.0 0 1 827.56 613.77
  L 814.62 580.72
  A 0.34 0.34 0.0 0 0 814.31 580.50
  L 772.83 580.50
  A 0.34 0.34 0.0 0 0 772.52 580.72
  Z
  M 810.45 569.04
  L 793.57 523.14
  Q 793.53 523.04 793.51 523.14
  C 789.26 538.70 782.89 553.66 777.21 568.78
  Q 777.03 569.25 777.54 569.25
  L 810.28 569.25
  Q 810.52 569.25 810.45 569.04
  Z"
/>
<path fill="#19181b" d="
  M 225.60 602.75
  L 271.40 602.75
  A 0.35 0.35 0.0 0 1 271.75 603.10
  L 271.76 613.65
  A 0.35 0.35 0.0 0 1 271.41 614.00
  L 213.10 614.00
  A 0.35 0.35 0.0 0 1 212.75 613.65
  L 212.75 508.85
  A 0.35 0.35 0.0 0 1 213.10 508.50
  L 224.90 508.50
  A 0.35 0.35 0.0 0 1 225.25 508.85
  L 225.25 602.40
  A 0.35 0.35 0.0 0 0 225.60 602.75
  Z"
/>
<path fill="#19181b" d="
  M 302.40 602.75
  L 348.10 602.75
  A 0.40 0.40 0.0 0 1 348.50 603.15
  L 348.50 613.60
  A 0.40 0.40 0.0 0 1 348.10 614.00
  L 289.90 614.00
  A 0.40 0.40 0.0 0 1 289.50 613.60
  L 289.50 508.90
  A 0.40 0.40 0.0 0 1 289.90 508.50
  L 301.60 508.50
  A 0.40 0.40 0.0 0 1 302.00 508.90
  L 302.00 602.35
  A 0.40 0.40 0.0 0 0 302.40 602.75
  Z"
/>
<path fill="#19181b" d="
  M 509.82 558.97
  C 519.94 560.20 529.75 566.22 532.04 577.32
  C 535.79 595.42 525.96 609.53 507.97 613.14
  Q 504.03 613.93 495.95 613.97
  Q 477.84 614.05 459.74 613.98
  A 0.25 0.24 90.0 0 1 459.50 613.73
  L 459.50 509.00
  A 0.51 0.51 0.0 0 1 460.01 508.49
  Q 476.52 508.47 493.25 508.58
  C 506.87 508.67 525.11 511.49 528.64 527.73
  C 532.03 543.35 524.75 554.33 509.76 558.04
  Q 507.27 558.65 509.82 558.97
  Z
  M 507.30 521.92
  C 497.50 518.00 483.30 519.12 472.45 519.32
  Q 472.00 519.33 472.00 519.78
  L 472.00 553.24
  A 0.28 0.28 0.0 0 0 472.28 553.52
  Q 484.11 553.51 495.99 553.35
  C 508.50 553.19 517.41 548.14 516.20 534.01
  Q 515.44 525.18 507.30 521.92
  Z
  M 518.96 588.00
  C 521.62 570.59 510.30 564.27 494.99 564.22
  Q 483.78 564.18 472.48 564.29
  Q 472.00 564.29 472.00 564.77
  L 472.00 602.98
  Q 472.00 603.48 472.49 603.48
  Q 482.75 603.56 493.00 603.47
  C 503.75 603.38 516.93 601.20 518.96 588.00
  Z"
/>
<path fill="#19181b" d="
  M 682.75 570.75
  L 682.75 613.62
  A 0.37 0.37 0.0 0 1 682.38 613.99
  L 670.75 614.00
  Q 670.25 614.00 670.25 613.50
  L 670.25 509.02
  Q 670.25 508.54 670.73 508.53
  Q 686.44 508.41 701.99 508.50
  C 722.81 508.62 739.15 517.91 737.18 541.22
  C 736.28 551.82 731.08 559.91 721.23 564.46
  Q 719.00 565.50 716.73 566.57
  A 0.49 0.48 -28.2 0 0 716.52 567.26
  L 744.47 613.54
  Q 744.75 614.00 744.21 614.00
  L 730.28 614.00
  Q 729.86 614.00 729.65 613.64
  L 704.72 570.79
  A 1.10 1.09 74.5 0 0 703.78 570.25
  L 683.25 570.25
  Q 682.75 570.25 682.75 570.75
  Z
  M 716.32 522.92
  C 706.63 518.09 693.84 519.39 683.20 519.56
  Q 682.75 519.56 682.75 520.01
  L 682.75 559.24
  A 0.26 0.26 0.0 0 0 683.00 559.50
  Q 692.10 559.52 701.25 559.44
  C 711.11 559.36 720.94 556.09 723.53 545.51
  C 725.44 537.76 724.26 526.88 716.32 522.92
  Z"
/>
<path fill="#19181b" d="
  M 868.13 519.50
  L 835.37 519.50
  A 0.37 0.37 0.0 0 1 835.00 519.13
  L 835.00 508.86
  A 0.37 0.37 0.0 0 1 835.37 508.49
  L 913.88 508.49
  A 0.37 0.37 0.0 0 1 914.25 508.86
  L 914.25 519.13
  A 0.37 0.37 0.0 0 1 913.88 519.50
  L 881.37 519.50
  A 0.37 0.37 0.0 0 0 881.00 519.87
  L 881.00 613.63
  A 0.37 0.37 0.0 0 1 880.63 614.00
  L 868.87 614.00
  A 0.37 0.37 0.0 0 1 868.50 613.63
  L 868.50 519.87
  A 0.37 0.37 0.0 0 0 868.13 519.50
  Z"
/>
<path fill="#19181b" d="
  M 1051.00 570.75
  L 1051.00 613.50
  Q 1051.00 614.00 1050.50 614.00
  L 1039.00 614.00
  Q 1038.50 614.00 1038.50 613.50
  L 1038.50 508.98
  A 0.48 0.47 90.0 0 1 1038.97 508.50
  Q 1054.91 508.47 1071.00 508.52
  C 1091.31 508.57 1106.55 517.93 1105.45 540.25
  C 1104.76 554.03 1097.18 561.93 1084.71 566.61
  A 0.25 0.24 64.2 0 0 1084.59 566.97
  L 1112.66 613.44
  Q 1113.00 614.00 1112.35 614.00
  L 1098.53 614.00
  Q 1098.11 614.00 1097.90 613.64
  L 1072.86 570.61
  Q 1072.65 570.25 1072.22 570.25
  L 1051.50 570.25
  Q 1051.00 570.25 1051.00 570.75
  Z
  M 1084.06 522.67
  C 1074.57 518.08 1061.63 519.44 1051.24 519.53
  A 0.25 0.25 0.0 0 0 1051.00 519.78
  L 1051.00 558.98
  Q 1051.00 559.45 1051.47 559.46
  Q 1061.32 559.63 1071.15 559.36
  C 1076.67 559.21 1083.17 557.58 1087.27 553.68
  C 1095.04 546.29 1094.81 527.88 1084.06 522.67
  Z"
/>
<path fill="#19181b" d="
  M 1156.36 560.42
  A 0.30 0.30 0.0 0 0 1156.89 560.42
  L 1184.40 508.87
  A 0.72 0.70 13.9 0 1 1185.03 508.50
  L 1197.97 508.50
  A 0.17 0.16 -75.0 0 1 1198.11 508.75
  Q 1180.99 540.14 1164.05 571.20
  Q 1163.03 573.08 1163.02 575.21
  Q 1162.98 594.37 1163.00 613.48
  Q 1163.00 614.00 1162.48 614.00
  L 1150.75 614.00
  Q 1150.25 614.00 1150.25 613.50
  L 1150.25 574.24
  Q 1150.25 573.71 1150.00 573.25
  L 1115.31 508.92
  A 0.28 0.28 0.0 0 1 1115.55 508.50
  L 1128.31 508.49
  A 0.93 0.92 76.2 0 1 1129.13 508.99
  L 1156.36 560.42
  Z"
/>
</svg>
