<?xml version="1.0" encoding="UTF-8" standalone="no"?>
<!DOCTYPE svg PUBLIC "-//W3C//DTD SVG 1.1//EN" "http://www.w3.org/Graphics/SVG/1.1/DTD/svg11.dtd">
<svg xmlns="http://www.w3.org/2000/svg" version="1.1" viewBox="0.00 0.00 1200.00 616.00">
<circle fill="#e20078" cx="958.37" cy="16.04" r="13.36"/>
<circle fill="#009f8d" cx="525.51" cy="20.25" r="13.35"/>
<circle fill="#57595b" cx="255.83" cy="22.76" r="13.37"/>
<circle fill="#e20078" cx="1032.69" cy="57.02" r="13.35"/>
<circle fill="#e20078" cx="923.15" cy="59.09" r="13.36"/>
<circle fill="#57595b" cx="193.25" cy="62.40" r="13.37"/>
<circle fill="#009f8d" cx="286.18" cy="63.98" r="13.35"/>
<circle fill="#009f8d" cx="486.18" cy="68.35" r="13.36"/>
<circle fill="#57595b" cx="239.16" cy="68.95" r="13.36"/>
<circle fill="#57595b" cx="868.66" cy="70.59" r="13.37"/>
<circle fill="#009f8d" cx="548.47" cy="71.63" r="13.36"/>
<circle fill="#e20078" cx="961.65" cy="71.77" r="13.36"/>
<circle fill="#e20078" cx="698.56" cy="72.20" r="13.36"/>
<circle fill="#e20078" cx="337.90" cy="73.84" r="13.36"/>
<ellipse fill="#57595b" cx="0.00" cy="0.00" transform="translate(47.27,111.51) rotate(90.9)" rx="13.34" ry="13.13"/>
<circle fill="#57595b" cx="80.80" cy="111.51" r="13.24"/>
<circle fill="#57595b" cx="114.50" cy="111.51" r="13.36"/>
<circle fill="#57595b" cx="148.02" cy="111.51" r="13.35"/>
<circle fill="#57595b" cx="181.58" cy="111.51" r="13.36"/>
<circle fill="#57595b" cx="215.10" cy="111.51" r="13.37"/>
<circle fill="#57595b" cx="248.62" cy="111.51" r="13.37"/>
<circle fill="#57595b" cx="283.79" cy="111.52" r="13.36"/>
<circle fill="#57595b" cx="317.35" cy="111.51" r="13.37"/>
<circle fill="#009f8d" cx="431.30" cy="111.51" r="13.35"/>
<circle fill="#009f8d" cx="465.03" cy="111.51" r="13.23"/>
<circle fill="#009f8d" cx="498.55" cy="111.51" r="13.24"/>
<circle fill="#009f8d" cx="532.25" cy="111.51" r="13.35"/>
<circle fill="#009f8d" cx="565.78" cy="111.51" r="13.35"/>
<circle fill="#009f8d" cx="599.34" cy="111.51" r="13.36"/>
<circle fill="#009f8d" cx="632.86" cy="111.51" r="13.36"/>
<circle fill="#009f8d" cx="666.39" cy="111.51" r="13.36"/>
<circle fill="#009f8d" cx="701.55" cy="111.52" r="13.35"/>
<circle fill="#009f8d" cx="735.10" cy="111.51" r="13.36"/>
<circle fill="#e20078" cx="882.79" cy="111.51" r="13.23"/>
<circle fill="#e20078" cx="916.30" cy="111.51" r="13.23"/>
<circle fill="#e20078" cx="950.01" cy="111.51" r="13.35"/>
<circle fill="#e20078" cx="983.54" cy="111.51" r="13.35"/>
<circle fill="#e20078" cx="1017.09" cy="111.51" r="13.36"/>
<circle fill="#e20078" cx="1050.62" cy="111.51" r="13.36"/>
<circle fill="#e20078" cx="1084.14" cy="111.52" r="13.36"/>
<circle fill="#e20078" cx="1119.31" cy="111.52" r="13.35"/>
<circle fill="#e20078" cx="1152.86" cy="111.51" r="13.36"/>
<circle fill="#e20078" cx="1186.39" cy="111.51" r="13.36"/>
<circle fill="#57595b" cx="13.54" cy="143.60" r="13.24"/>
<circle fill="#57595b" cx="47.26" cy="143.60" r="13.12"/>
<circle fill="#57595b" cx="80.79" cy="143.59" r="13.12"/>
<ellipse fill="#57595b" cx="0.00" cy="0.00" transform="translate(114.50,143.59) rotate(1.4)" rx="13.34" ry="13.15"/>
<circle fill="#57595b" cx="148.02" cy="143.60" r="13.24"/>
<ellipse fill="#57595b" cx="0.00" cy="0.00" transform="translate(181.58,143.58) rotate(-0.7)" rx="13.35" ry="13.14"/>
<ellipse fill="#57595b" cx="0.00" cy="0.00" transform="translate(215.10,143.58) rotate(0.4)" rx="13.35" ry="13.14"/>
<ellipse fill="#57595b" cx="0.00" cy="0.00" transform="translate(248.62,143.58) rotate(-0.9)" rx="13.35" ry="13.14"/>
<ellipse fill="#57595b" cx="0.00" cy="0.00" transform="translate(283.79,143.60) rotate(-0.2)" rx="13.35" ry="13.15"/>
<ellipse fill="#57595b" cx="0.00" cy="0.00" transform="translate(317.35,143.58) rotate(0.7)" rx="13.35" ry="13.14"/>
<ellipse fill="#57595b" cx="0.00" cy="0.00" transform="translate(350.87,143.58) rotate(-0.6)" rx="13.35" ry="13.14"/>
<circle fill="#009f8d" cx="431.30" cy="143.60" r="13.24"/>
<circle fill="#009f8d" cx="465.02" cy="143.59" r="13.12"/>
<circle fill="#009f8d" cx="498.54" cy="143.59" r="13.12"/>
<circle fill="#009f8d" cx="532.26" cy="143.60" r="13.24"/>
<circle fill="#009f8d" cx="565.78" cy="143.60" r="13.24"/>
<ellipse fill="#009f8d" cx="0.00" cy="0.00" transform="translate(599.33,143.58) rotate(-0.6)" rx="13.34" ry="13.14"/>
<circle fill="#009f8d" cx="632.86" cy="143.58" r="13.24"/>
<ellipse fill="#009f8d" cx="0.00" cy="0.00" transform="translate(666.39,143.58) rotate(-0.5)" rx="13.35" ry="13.14"/>
<ellipse fill="#009f8d" cx="0.00" cy="0.00" transform="translate(701.54,143.60) rotate(-1.1)" rx="13.35" ry="13.14"/>
<ellipse fill="#009f8d" cx="0.00" cy="0.00" transform="translate(735.11,143.58) rotate(0.6)" rx="13.35" ry="13.13"/>
<circle fill="#009f8d" cx="768.63" cy="143.58" r="13.24"/>
<circle fill="#e20078" cx="849.05" cy="143.60" r="13.23"/>
<circle fill="#e20078" cx="882.78" cy="143.59" r="13.12"/>
<circle fill="#e20078" cx="916.30" cy="143.59" r="13.12"/>
<circle fill="#e20078" cx="950.02" cy="143.60" r="13.24"/>
<ellipse fill="#e20078" cx="0.00" cy="0.00" transform="translate(983.54,143.60) rotate(-0.7)" rx="13.34" ry="13.14"/>
<ellipse fill="#e20078" cx="0.00" cy="0.00" transform="translate(1017.10,143.58) rotate(1.2)" rx="13.34" ry="13.13"/>
<circle fill="#e20078" cx="1050.62" cy="143.58" r="13.24"/>
<ellipse fill="#e20078" cx="0.00" cy="0.00" transform="translate(1084.14,143.58) rotate(-0.4)" rx="13.34" ry="13.13"/>
<ellipse fill="#e20078" cx="0.00" cy="0.00" transform="translate(1119.30,143.60) rotate(0.2)" rx="13.34" ry="13.14"/>
<circle fill="#e20078" cx="1152.86" cy="143.58" r="13.24"/>
<ellipse fill="#e20078" cx="0.00" cy="0.00" transform="translate(1186.39,143.58) rotate(-0.9)" rx="13.34" ry="13.13"/>
<circle fill="#57595b" cx="13.55" cy="175.66" r="13.36"/>
<ellipse fill="#57595b" cx="0.00" cy="0.00" transform="translate(47.26,175.66) rotate(89.8)" rx="13.36" ry="13.13"/>
<ellipse fill="#57595b" cx="0.00" cy="0.00" transform="translate(80.79,175.66) rotate(90.6)" rx="13.36" ry="13.14"/>
<circle fill="#57595b" cx="114.50" cy="175.66" r="13.37"/>
<circle fill="#57595b" cx="148.03" cy="175.67" r="13.36"/>
<circle fill="#57595b" cx="181.58" cy="175.66" r="13.36"/>
<circle fill="#57595b" cx="215.10" cy="175.66" r="13.37"/>
<circle fill="#57595b" cx="248.63" cy="175.66" r="13.37"/>
<circle fill="#57595b" cx="283.79" cy="175.67" r="13.36"/>
<circle fill="#57595b" cx="317.35" cy="175.66" r="13.37"/>
<circle fill="#57595b" cx="350.87" cy="175.66" r="13.37"/>
<circle fill="#009f8d" cx="431.30" cy="175.66" r="13.36"/>
<ellipse fill="#009f8d" cx="0.00" cy="0.00" transform="translate(465.01,175.66) rotate(89.7)" rx="13.35" ry="13.13"/>
<ellipse fill="#009f8d" cx="0.00" cy="0.00" transform="translate(498.55,175.66) rotate(90.9)" rx="13.35" ry="13.13"/>
<circle fill="#009f8d" cx="532.26" cy="175.67" r="13.36"/>
<circle fill="#009f8d" cx="565.79" cy="175.67" r="13.36"/>
<circle fill="#009f8d" cx="599.33" cy="175.66" r="13.36"/>
<circle fill="#009f8d" cx="632.86" cy="175.66" r="13.36"/>
<circle fill="#009f8d" cx="666.39" cy="175.66" r="13.36"/>
<circle fill="#009f8d" cx="701.55" cy="175.67" r="13.36"/>
<circle fill="#009f8d" cx="735.11" cy="175.66" r="13.36"/>
<circle fill="#009f8d" cx="768.63" cy="175.66" r="13.36"/>
<circle fill="#e20078" cx="849.06" cy="175.66" r="13.35"/>
<ellipse fill="#e20078" cx="0.00" cy="0.00" transform="translate(882.77,175.66) rotate(90.0)" rx="13.35" ry="13.13"/>
<ellipse fill="#e20078" cx="0.00" cy="0.00" transform="translate(916.30,175.66) rotate(90.8)" rx="13.35" ry="13.14"/>
<circle fill="#e20078" cx="950.02" cy="175.67" r="13.36"/>
<circle fill="#e20078" cx="983.54" cy="175.67" r="13.36"/>
<circle fill="#e20078" cx="1017.09" cy="175.66" r="13.36"/>
<circle fill="#e20078" cx="1050.62" cy="175.65" r="13.36"/>
<circle fill="#e20078" cx="1084.14" cy="175.66" r="13.36"/>
<circle fill="#e20078" cx="1119.30" cy="175.67" r="13.36"/>
<circle fill="#e20078" cx="1152.86" cy="175.66" r="13.36"/>
<circle fill="#e20078" cx="1186.39" cy="175.66" r="13.36"/>
<circle fill="#57595b" cx="13.54" cy="207.90" r="13.36"/>
<ellipse fill="#57595b" cx="0.00" cy="0.00" transform="translate(47.27,207.89) rotate(90.4)" rx="13.36" ry="13.13"/>
<ellipse fill="#57595b" cx="0.00" cy="0.00" transform="translate(80.79,207.89) rotate(89.5)" rx="13.35" ry="13.14"/>
<circle fill="#57595b" cx="283.79" cy="207.90" r="13.37"/>
<circle fill="#57595b" cx="317.35" cy="207.89" r="13.37"/>
<circle fill="#57595b" cx="350.87" cy="207.89" r="13.37"/>
<circle fill="#009f8d" cx="431.30" cy="207.89" r="13.36"/>
<ellipse fill="#009f8d" cx="0.00" cy="0.00" transform="translate(465.02,207.89) rotate(89.7)" rx="13.35" ry="13.13"/>
<ellipse fill="#009f8d" cx="0.00" cy="0.00" transform="translate(498.55,207.90) rotate(89.1)" rx="13.35" ry="13.13"/>
<circle fill="#009f8d" cx="701.55" cy="207.90" r="13.36"/>
<circle fill="#009f8d" cx="735.11" cy="207.90" r="13.36"/>
<circle fill="#009f8d" cx="768.63" cy="207.89" r="13.36"/>
<circle fill="#e20078" cx="849.05" cy="207.89" r="13.35"/>
<ellipse fill="#e20078" cx="0.00" cy="0.00" transform="translate(882.78,207.89) rotate(89.2)" rx="13.35" ry="13.13"/>
<ellipse fill="#e20078" cx="0.00" cy="0.00" transform="translate(916.30,207.90) rotate(88.9)" rx="13.34" ry="13.13"/>
<circle fill="#57595b" cx="13.54" cy="239.96" r="13.24"/>
<circle fill="#57595b" cx="47.27" cy="239.96" r="13.12"/>
<circle fill="#57595b" cx="80.79" cy="239.96" r="13.13"/>
<circle fill="#57595b" cx="114.50" cy="239.96" r="13.24"/>
<circle fill="#57595b" cx="148.02" cy="239.96" r="13.24"/>
<ellipse fill="#57595b" cx="0.00" cy="0.00" transform="translate(181.58,239.96) rotate(-0.6)" rx="13.36" ry="13.13"/>
<ellipse fill="#57595b" cx="0.00" cy="0.00" transform="translate(215.10,239.97) rotate(0.5)" rx="13.35" ry="13.14"/>
<ellipse fill="#57595b" cx="0.00" cy="0.00" transform="translate(248.63,239.97) rotate(0.1)" rx="13.36" ry="13.14"/>
<ellipse fill="#57595b" cx="0.00" cy="0.00" transform="translate(283.79,239.97) rotate(-1.0)" rx="13.35" ry="13.14"/>
<ellipse fill="#57595b" cx="0.00" cy="0.00" transform="translate(317.35,239.97) rotate(0.6)" rx="13.36" ry="13.14"/>
<ellipse fill="#57595b" cx="0.00" cy="0.00" transform="translate(350.88,239.97) rotate(-0.4)" rx="13.36" ry="13.13"/>
<ellipse fill="#009f8d" cx="0.00" cy="0.00" transform="translate(431.30,239.96) rotate(-1.9)" rx="13.34" ry="13.13"/>
<circle fill="#009f8d" cx="465.03" cy="239.96" r="13.12"/>
<circle fill="#009f8d" cx="498.55" cy="239.97" r="13.12"/>
<circle fill="#009f8d" cx="532.25" cy="239.96" r="13.23"/>
<circle fill="#009f8d" cx="565.78" cy="239.97" r="13.24"/>
<ellipse fill="#009f8d" cx="0.00" cy="0.00" transform="translate(599.34,239.96) rotate(-0.4)" rx="13.35" ry="13.13"/>
<ellipse fill="#009f8d" cx="0.00" cy="0.00" transform="translate(632.86,239.97) rotate(0.6)" rx="13.35" ry="13.13"/>
<ellipse fill="#009f8d" cx="0.00" cy="0.00" transform="translate(666.38,239.97) rotate(0.4)" rx="13.35" ry="13.13"/>
<ellipse fill="#009f8d" cx="0.00" cy="0.00" transform="translate(701.55,239.97) rotate(-0.3)" rx="13.35" ry="13.13"/>
<ellipse fill="#009f8d" cx="0.00" cy="0.00" transform="translate(735.11,239.97) rotate(0.8)" rx="13.35" ry="13.14"/>
<ellipse fill="#009f8d" cx="768.63" cy="239.97" rx="13.35" ry="13.13"/>
<ellipse fill="#e20078" cx="0.00" cy="0.00" transform="translate(849.06,239.96) rotate(-1.9)" rx="13.34" ry="13.13"/>
<circle fill="#e20078" cx="882.79" cy="239.96" r="13.12"/>
<circle fill="#e20078" cx="916.30" cy="239.97" r="13.12"/>
<circle fill="#e20078" cx="950.01" cy="239.96" r="13.23"/>
<ellipse fill="#e20078" cx="0.00" cy="0.00" transform="translate(983.54,239.97) rotate(-0.8)" rx="13.34" ry="13.13"/>
<ellipse fill="#e20078" cx="0.00" cy="0.00" transform="translate(1017.09,239.97) rotate(0.4)" rx="13.35" ry="13.13"/>
<ellipse fill="#e20078" cx="0.00" cy="0.00" transform="translate(1050.62,239.97) rotate(0.2)" rx="13.34" ry="13.13"/>
<ellipse fill="#e20078" cx="0.00" cy="0.00" transform="translate(1084.14,239.97) rotate(0.1)" rx="13.35" ry="13.13"/>
<ellipse fill="#e20078" cx="0.00" cy="0.00" transform="translate(1119.31,239.97) rotate(-0.6)" rx="13.35" ry="13.13"/>
<ellipse fill="#e20078" cx="0.00" cy="0.00" transform="translate(1152.86,239.97) rotate(0.6)" rx="13.35" ry="13.13"/>
<circle fill="#57595b" cx="13.54" cy="272.03" r="13.36"/>
<ellipse fill="#57595b" cx="0.00" cy="0.00" transform="translate(47.27,272.04) rotate(88.7)" rx="13.34" ry="13.13"/>
<ellipse fill="#57595b" cx="0.00" cy="0.00" transform="translate(80.79,272.04) rotate(88.2)" rx="13.34" ry="13.14"/>
<circle fill="#57595b" cx="114.50" cy="272.03" r="13.36"/>
<circle fill="#57595b" cx="148.02" cy="272.03" r="13.36"/>
<circle fill="#57595b" cx="181.58" cy="272.04" r="13.36"/>
<circle fill="#57595b" cx="215.11" cy="272.04" r="13.36"/>
<circle fill="#57595b" cx="248.62" cy="272.04" r="13.36"/>
<circle fill="#57595b" cx="283.79" cy="272.04" r="13.36"/>
<circle fill="#57595b" cx="317.35" cy="272.04" r="13.37"/>
<circle fill="#57595b" cx="350.87" cy="272.04" r="13.36"/>
<circle fill="#009f8d" cx="431.29" cy="272.03" r="13.35"/>
<circle fill="#009f8d" cx="465.02" cy="272.04" r="13.23"/>
<ellipse fill="#009f8d" cx="0.00" cy="0.00" transform="translate(498.55,272.04) rotate(89.3)" rx="13.34" ry="13.14"/>
<circle fill="#009f8d" cx="532.25" cy="272.03" r="13.35"/>
<circle fill="#009f8d" cx="565.78" cy="272.03" r="13.35"/>
<circle fill="#009f8d" cx="599.34" cy="272.04" r="13.36"/>
<circle fill="#009f8d" cx="632.86" cy="272.04" r="13.36"/>
<circle fill="#009f8d" cx="666.39" cy="272.04" r="13.36"/>
<circle fill="#009f8d" cx="701.55" cy="272.04" r="13.36"/>
<circle fill="#009f8d" cx="735.11" cy="272.03" r="13.36"/>
<circle fill="#e20078" cx="849.05" cy="272.03" r="13.35"/>
<circle fill="#e20078" cx="882.79" cy="272.04" r="13.23"/>
<circle fill="#e20078" cx="916.30" cy="272.04" r="13.24"/>
<circle fill="#e20078" cx="950.01" cy="272.03" r="13.35"/>
<circle fill="#e20078" cx="983.54" cy="272.03" r="13.35"/>
<circle fill="#e20078" cx="1017.10" cy="272.04" r="13.36"/>
<circle fill="#e20078" cx="1050.62" cy="272.04" r="13.35"/>
<circle fill="#e20078" cx="1084.15" cy="272.04" r="13.35"/>
<circle fill="#e20078" cx="1119.31" cy="272.04" r="13.36"/>
<circle fill="#e20078" cx="1152.87" cy="272.04" r="13.35"/>
<circle fill="#e20078" cx="1186.39" cy="272.04" r="13.36"/>
<circle fill="#57595b" cx="13.54" cy="304.27" r="13.36"/>
<ellipse fill="#57595b" cx="0.00" cy="0.00" transform="translate(47.27,304.27) rotate(89.4)" rx="13.35" ry="13.13"/>
<circle fill="#57595b" cx="80.80" cy="304.27" r="13.24"/>
<circle fill="#57595b" cx="114.50" cy="304.27" r="13.36"/>
<circle fill="#57595b" cx="148.02" cy="304.27" r="13.35"/>
<circle fill="#57595b" cx="181.58" cy="304.27" r="13.37"/>
<circle fill="#57595b" cx="215.10" cy="304.27" r="13.37"/>
<circle fill="#57595b" cx="248.63" cy="304.27" r="13.37"/>
<circle fill="#57595b" cx="283.79" cy="304.28" r="13.36"/>
<circle fill="#57595b" cx="317.35" cy="304.27" r="13.37"/>
<circle fill="#57595b" cx="350.87" cy="304.27" r="13.37"/>
<circle fill="#009f8d" cx="431.30" cy="304.27" r="13.35"/>
<ellipse fill="#009f8d" cx="0.00" cy="0.00" transform="translate(465.03,304.27) rotate(89.8)" rx="13.34" ry="13.13"/>
<circle fill="#009f8d" cx="498.55" cy="304.27" r="13.24"/>
<circle fill="#009f8d" cx="532.26" cy="304.27" r="13.35"/>
<circle fill="#009f8d" cx="565.78" cy="304.27" r="13.35"/>
<circle fill="#009f8d" cx="599.34" cy="304.27" r="13.36"/>
<circle fill="#009f8d" cx="632.86" cy="304.27" r="13.36"/>
<circle fill="#009f8d" cx="666.39" cy="304.27" r="13.37"/>
<circle fill="#009f8d" cx="701.55" cy="304.28" r="13.35"/>
<circle fill="#009f8d" cx="735.10" cy="304.27" r="13.36"/>
<circle fill="#009f8d" cx="768.63" cy="304.27" r="13.36"/>
<circle fill="#e20078" cx="882.79" cy="304.27" r="13.23"/>
<circle fill="#e20078" cx="916.30" cy="304.27" r="13.23"/>
<circle fill="#e20078" cx="950.01" cy="304.27" r="13.35"/>
<circle fill="#e20078" cx="983.54" cy="304.27" r="13.35"/>
<circle fill="#e20078" cx="1017.09" cy="304.27" r="13.36"/>
<circle fill="#e20078" cx="1050.62" cy="304.27" r="13.36"/>
<circle fill="#e20078" cx="1084.14" cy="304.27" r="13.36"/>
<circle fill="#e20078" cx="1119.31" cy="304.28" r="13.35"/>
<circle fill="#e20078" cx="1152.86" cy="304.27" r="13.36"/>
<circle fill="#e20078" cx="1186.39" cy="304.27" r="13.36"/>
<circle fill="#57595b" cx="13.54" cy="336.35" r="13.24"/>
<circle fill="#57595b" cx="47.26" cy="336.36" r="13.12"/>
<circle fill="#57595b" cx="80.79" cy="336.35" r="13.12"/>
<ellipse fill="#57595b" cx="0.00" cy="0.00" transform="translate(283.78,336.35) rotate(0.8)" rx="13.34" ry="13.15"/>
<ellipse fill="#57595b" cx="0.00" cy="0.00" transform="translate(317.35,336.34) rotate(0.4)" rx="13.35" ry="13.15"/>
<ellipse fill="#57595b" cx="0.00" cy="0.00" transform="translate(350.87,336.34) rotate(-0.5)" rx="13.35" ry="13.14"/>
<circle fill="#009f8d" cx="431.30" cy="336.35" r="13.24"/>
<circle fill="#009f8d" cx="465.02" cy="336.35" r="13.12"/>
<circle fill="#009f8d" cx="498.55" cy="336.35" r="13.12"/>
<ellipse fill="#009f8d" cx="0.00" cy="0.00" transform="translate(701.55,336.35) rotate(-1.3)" rx="13.34" ry="13.14"/>
<ellipse fill="#009f8d" cx="0.00" cy="0.00" transform="translate(735.11,336.34) rotate(-0.1)" rx="13.35" ry="13.13"/>
<ellipse fill="#009f8d" cx="0.00" cy="0.00" transform="translate(768.63,336.35) rotate(-1.5)" rx="13.35" ry="13.13"/>
<ellipse fill="#e20078" cx="0.00" cy="0.00" transform="translate(1119.30,336.35) rotate(-1.4)" rx="13.34" ry="13.14"/>
<ellipse fill="#e20078" cx="0.00" cy="0.00" transform="translate(1152.86,336.34) rotate(-0.6)" rx="13.34" ry="13.13"/>
<ellipse fill="#e20078" cx="0.00" cy="0.00" transform="translate(1186.39,336.35) rotate(-1.1)" rx="13.34" ry="13.13"/>
<circle fill="#57595b" cx="13.55" cy="368.42" r="13.36"/>
<ellipse fill="#57595b" cx="0.00" cy="0.00" transform="translate(47.26,368.41) rotate(89.4)" rx="13.36" ry="13.13"/>
<ellipse fill="#57595b" cx="0.00" cy="0.00" transform="translate(80.79,368.42) rotate(89.8)" rx="13.36" ry="13.14"/>
<circle fill="#57595b" cx="283.79" cy="368.43" r="13.36"/>
<circle fill="#57595b" cx="317.34" cy="368.42" r="13.37"/>
<circle fill="#57595b" cx="350.87" cy="368.41" r="13.37"/>
<circle fill="#009f8d" cx="431.30" cy="368.42" r="13.36"/>
<ellipse fill="#009f8d" cx="0.00" cy="0.00" transform="translate(465.01,368.41) rotate(89.2)" rx="13.35" ry="13.13"/>
<ellipse fill="#009f8d" cx="0.00" cy="0.00" transform="translate(498.54,368.41) rotate(90.0)" rx="13.35" ry="13.13"/>
<circle fill="#009f8d" cx="532.26" cy="368.42" r="13.36"/>
<circle fill="#009f8d" cx="565.78" cy="368.43" r="13.36"/>
<circle fill="#009f8d" cx="599.33" cy="368.42" r="13.36"/>
<circle fill="#009f8d" cx="632.86" cy="368.42" r="13.36"/>
<circle fill="#009f8d" cx="666.39" cy="368.42" r="13.37"/>
<circle fill="#009f8d" cx="701.55" cy="368.43" r="13.36"/>
<circle fill="#009f8d" cx="735.10" cy="368.41" r="13.36"/>
<circle fill="#009f8d" cx="768.63" cy="368.41" r="13.36"/>
<circle fill="#e20078" cx="849.05" cy="368.42" r="13.35"/>
<ellipse fill="#e20078" cx="0.00" cy="0.00" transform="translate(882.77,368.41) rotate(89.2)" rx="13.35" ry="13.12"/>
<ellipse fill="#e20078" cx="0.00" cy="0.00" transform="translate(916.30,368.41) rotate(91.4)" rx="13.35" ry="13.13"/>
<circle fill="#e20078" cx="950.02" cy="368.43" r="13.36"/>
<circle fill="#e20078" cx="983.54" cy="368.43" r="13.36"/>
<circle fill="#e20078" cx="1017.09" cy="368.42" r="13.36"/>
<circle fill="#e20078" cx="1050.62" cy="368.41" r="13.36"/>
<circle fill="#e20078" cx="1084.14" cy="368.42" r="13.36"/>
<circle fill="#e20078" cx="1119.30" cy="368.43" r="13.36"/>
<circle fill="#e20078" cx="1152.86" cy="368.41" r="13.36"/>
<circle fill="#e20078" cx="1186.39" cy="368.42" r="13.36"/>
<circle fill="#57595b" cx="13.54" cy="400.66" r="13.36"/>
<ellipse fill="#57595b" cx="0.00" cy="0.00" transform="translate(47.27,400.65) rotate(88.4)" rx="13.36" ry="13.13"/>
<ellipse fill="#57595b" cx="0.00" cy="0.00" transform="translate(80.79,400.66) rotate(90.2)" rx="13.35" ry="13.14"/>
<circle fill="#57595b" cx="283.79" cy="400.66" r="13.37"/>
<circle fill="#57595b" cx="317.35" cy="400.65" r="13.36"/>
<circle fill="#57595b" cx="350.87" cy="400.66" r="13.36"/>
<circle fill="#009f8d" cx="431.30" cy="400.66" r="13.36"/>
<ellipse fill="#009f8d" cx="0.00" cy="0.00" transform="translate(465.02,400.65) rotate(89.9)" rx="13.36" ry="13.13"/>
<ellipse fill="#009f8d" cx="0.00" cy="0.00" transform="translate(498.54,400.66) rotate(89.7)" rx="13.35" ry="13.13"/>
<circle fill="#009f8d" cx="532.25" cy="400.66" r="13.36"/>
<circle fill="#009f8d" cx="565.77" cy="400.66" r="13.36"/>
<circle fill="#009f8d" cx="599.34" cy="400.65" r="13.36"/>
<circle fill="#009f8d" cx="632.86" cy="400.66" r="13.36"/>
<circle fill="#009f8d" cx="666.38" cy="400.66" r="13.36"/>
<circle fill="#009f8d" cx="701.55" cy="400.66" r="13.36"/>
<circle fill="#009f8d" cx="735.11" cy="400.66" r="13.36"/>
<circle fill="#009f8d" cx="768.63" cy="400.66" r="13.36"/>
<circle fill="#e20078" cx="849.06" cy="400.66" r="13.35"/>
<ellipse fill="#e20078" cx="0.00" cy="0.00" transform="translate(882.79,400.66) rotate(89.7)" rx="13.35" ry="13.13"/>
<ellipse fill="#e20078" cx="0.00" cy="0.00" transform="translate(916.30,400.66) rotate(89.4)" rx="13.34" ry="13.13"/>
<circle fill="#e20078" cx="950.01" cy="400.66" r="13.36"/>
<circle fill="#e20078" cx="983.54" cy="400.66" r="13.36"/>
<circle fill="#e20078" cx="1017.10" cy="400.65" r="13.35"/>
<circle fill="#e20078" cx="1050.61" cy="400.66" r="13.36"/>
<circle fill="#e20078" cx="1084.14" cy="400.66" r="13.35"/>
<circle fill="#e20078" cx="1119.31" cy="400.66" r="13.36"/>
<circle fill="#e20078" cx="1152.86" cy="400.66" r="13.36"/>
<circle fill="#e20078" cx="1186.38" cy="400.66" r="13.35"/>
<ellipse fill="#57595b" cx="0.00" cy="0.00" transform="translate(13.55,432.72) rotate(-1.6)" rx="13.35" ry="13.14"/>
<circle fill="#57595b" cx="47.27" cy="432.72" r="13.12"/>
<circle fill="#57595b" cx="80.79" cy="432.72" r="13.13"/>
<ellipse fill="#57595b" cx="0.00" cy="0.00" transform="translate(283.80,432.73) rotate(-1.2)" rx="13.35" ry="13.13"/>
<ellipse fill="#57595b" cx="0.00" cy="0.00" transform="translate(317.35,432.73) rotate(1.1)" rx="13.36" ry="13.14"/>
<ellipse fill="#57595b" cx="0.00" cy="0.00" transform="translate(350.87,432.73) rotate(-0.1)" rx="13.36" ry="13.13"/>
<circle fill="#009f8d" cx="431.30" cy="432.72" r="13.23"/>
<circle fill="#009f8d" cx="465.03" cy="432.72" r="13.12"/>
<circle fill="#009f8d" cx="498.55" cy="432.73" r="13.12"/>
<ellipse fill="#009f8d" cx="0.00" cy="0.00" transform="translate(532.25,432.72) rotate(-0.1)" rx="13.33" ry="13.13"/>
<ellipse fill="#009f8d" cx="0.00" cy="0.00" transform="translate(565.78,432.72) rotate(-0.7)" rx="13.34" ry="13.13"/>
<ellipse fill="#009f8d" cx="0.00" cy="0.00" transform="translate(599.34,432.72) rotate(0.7)" rx="13.35" ry="13.13"/>
<ellipse fill="#009f8d" cx="0.00" cy="0.00" transform="translate(632.86,432.73) rotate(0.2)" rx="13.35" ry="13.13"/>
<ellipse fill="#009f8d" cx="0.00" cy="0.00" transform="translate(666.38,432.73) rotate(-0.1)" rx="13.36" ry="13.12"/>
<ellipse fill="#009f8d" cx="0.00" cy="0.00" transform="translate(701.56,432.73) rotate(-0.8)" rx="13.35" ry="13.12"/>
<ellipse fill="#009f8d" cx="0.00" cy="0.00" transform="translate(735.11,432.73) rotate(0.9)" rx="13.35" ry="13.13"/>
<circle fill="#e20078" cx="849.06" cy="432.72" r="13.23"/>
<circle fill="#e20078" cx="882.79" cy="432.72" r="13.11"/>
<circle fill="#e20078" cx="916.30" cy="432.72" r="13.12"/>
<ellipse fill="#e20078" cx="0.00" cy="0.00" transform="translate(950.01,432.72) rotate(0.3)" rx="13.33" ry="13.13"/>
<ellipse fill="#e20078" cx="0.00" cy="0.00" transform="translate(983.55,432.73) rotate(-0.7)" rx="13.34" ry="13.12"/>
<ellipse fill="#e20078" cx="0.00" cy="0.00" transform="translate(1017.10,432.73) rotate(1.0)" rx="13.35" ry="13.13"/>
<ellipse fill="#e20078" cx="0.00" cy="0.00" transform="translate(1050.62,432.73) rotate(0.2)" rx="13.34" ry="13.13"/>
<ellipse fill="#e20078" cx="0.00" cy="0.00" transform="translate(1084.14,432.73) rotate(0.3)" rx="13.35" ry="13.12"/>
<ellipse fill="#e20078" cx="0.00" cy="0.00" transform="translate(1119.32,432.73) rotate(-0.6)" rx="13.35" ry="13.12"/>
<ellipse fill="#e20078" cx="0.00" cy="0.00" transform="translate(1152.86,432.73) rotate(0.4)" rx="13.34" ry="13.13"/>
<path fill="#57595b" d="
  M 0.00 566.95
  L 0.00 556.01
  C 4.70 517.02 44.52 495.19 79.46 512.47
  Q 79.98 512.73 79.73 513.25
  L 74.89 523.26
  Q 74.66 523.74 74.19 523.49
  Q 64.26 518.21 53.51 518.60
  C 26.95 519.56 8.42 542.58 12.53 568.75
  C 15.19 585.71 29.47 598.64 45.51 602.22
  Q 58.84 605.19 71.76 599.49
  A 0.58 0.58 0.0 0 1 72.51 599.76
  L 77.40 609.59
  Q 77.63 610.06 77.17 610.29
  C 58.55 619.32 35.69 615.62 19.87 603.06
  Q 3.06 589.72 0.00 566.95
  Z"
/>
<path fill="#57595b" d="
  M 195.63 560.95
  A 54.42 54.42 0.0 0 1 141.21 615.37
  A 54.42 54.42 0.0 0 1 86.79 560.95
  A 54.42 54.42 0.0 0 1 141.21 506.53
  A 54.42 54.42 0.0 0 1 195.63 560.95
  Z
  M 183.50 560.94
  A 42.31 42.31 0.0 0 0 141.19 518.63
  A 42.31 42.31 0.0 0 0 98.88 560.94
  A 42.31 42.31 0.0 0 0 141.19 603.25
  A 42.31 42.31 0.0 0 0 183.50 560.94
  Z"
/>
<path fill="#57595b" d="
  M 652.07 560.96
  A 54.42 54.42 0.0 0 1 597.65 615.38
  A 54.42 54.42 0.0 0 1 543.23 560.96
  A 54.42 54.42 0.0 0 1 597.65 506.54
  A 54.42 54.42 0.0 0 1 652.07 560.96
  Z
  M 639.94 560.94
  A 42.31 42.31 0.0 0 0 597.63 518.63
  A 42.31 42.31 0.0 0 0 555.32 560.94
  A 42.31 42.31 0.0 0 0 597.63 603.25
  A 42.31 42.31 0.0 0 0 639.94 560.94
  Z"
/>
<path fill="#57595b" d="
  M 1020.32 560.96
  A 54.42 54.42 0.0 0 1 965.90 615.38
  A 54.42 54.42 0.0 0 1 911.48 560.96
  A 54.42 54.42 0.0 0 1 965.90 506.54
  A 54.42 54.42 0.0 0 1 1020.32 560.96
  Z
  M 1008.20 560.94
  A 42.31 42.31 0.0 0 0 965.89 518.63
  A 42.31 42.31 0.0 0 0 923.58 560.94
  A 42.31 42.31 0.0 0 0 965.89 603.25
  A 42.31 42.31 0.0 0 0 1008.20 560.94
  Z"
/>
<path fill="#57595b" d="
  M 418.95 580.50
  L 377.48 580.50
  A 0.35 0.35 0.0 0 0 377.15 580.72
  L 364.36 613.78
  A 0.35 0.35 0.0 0 1 364.03 614.00
  L 352.05 614.00
  A 0.35 0.35 0.0 0 1 351.73 613.52
  L 393.19 508.22
  A 0.35 0.35 0.0 0 1 393.52 508.00
  L 403.55 508.00
  A 0.35 0.35 0.0 0 1 403.88 508.22
  L 445.12 613.51
  A 0.35 0.35 0.0 0 1 444.80 613.99
  L 432.54 614.00
  A 0.35 0.35 0.0 0 1 432.21 613.78
  L 419.28 580.72
  A 0.35 0.35 0.0 0 0 418.95 580.50
  Z
  M 398.28 523.09
  C 397.00 527.02 396.02 531.22 394.66 534.83
  Q 388.27 551.76 381.87 568.70
  Q 381.66 569.25 382.25 569.25
  L 414.73 569.25
  Q 415.25 569.25 415.07 568.76
  C 409.46 553.75 402.99 538.53 398.68 523.10
  Q 398.50 522.44 398.28 523.09
  Z"
/>
<path fill="#57595b" d="
  M 772.51 580.70
  L 759.71 613.80
  A 0.32 0.32 0.0 0 1 759.41 614.00
  L 747.37 614.00
  A 0.32 0.32 0.0 0 1 747.07 613.56
  L 788.56 508.20
  A 0.32 0.32 0.0 0 1 788.86 508.00
  L 798.93 508.00
  A 0.32 0.32 0.0 0 1 799.23 508.20
  L 840.50 613.55
  A 0.32 0.32 0.0 0 1 840.20 613.99
  L 827.88 614.00
  A 0.32 0.32 0.0 0 1 827.58 613.80
  L 814.64 580.70
  A 0.32 0.32 0.0 0 0 814.34 580.50
  L 772.81 580.50
  A 0.32 0.32 0.0 0 0 772.51 580.70
  Z
  M 810.59 569.08
  C 804.77 553.65 798.98 538.55 793.96 523.05
  Q 793.71 522.26 793.49 523.07
  C 789.37 538.64 782.88 553.67 777.20 568.78
  Q 777.02 569.25 777.53 569.25
  L 810.47 569.25
  A 0.13 0.13 0.0 0 0 810.59 569.08
  Z"
/>
<path fill="#57595b" d="
  M 225.61 602.75
  L 271.39 602.75
  A 0.36 0.36 0.0 0 1 271.75 603.11
  L 271.76 613.64
  A 0.36 0.36 0.0 0 1 271.40 614.00
  L 213.11 614.00
  A 0.36 0.36 0.0 0 1 212.75 613.64
  L 212.75 508.86
  A 0.36 0.36 0.0 0 1 213.11 508.50
  L 224.89 508.51
  A 0.36 0.36 0.0 0 1 225.25 508.87
  L 225.25 602.39
  A 0.36 0.36 0.0 0 0 225.61 602.75
  Z"
/>
<path fill="#57595b" d="
  M 302.35 602.75
  L 348.15 602.75
  A 0.35 0.35 0.0 0 1 348.50 603.10
  L 348.50 613.65
  A 0.35 0.35 0.0 0 1 348.15 614.00
  L 289.85 614.00
  A 0.35 0.35 0.0 0 1 289.50 613.65
  L 289.51 508.85
  A 0.35 0.35 0.0 0 1 289.86 508.50
  L 301.65 508.50
  A 0.35 0.35 0.0 0 1 302.00 508.85
  L 302.00 602.40
  A 0.35 0.35 0.0 0 0 302.35 602.75
  Z"
/>
<path fill="#57595b" d="
  M 510.33 559.03
  C 520.48 560.32 529.77 566.66 532.01 577.36
  C 536.59 599.25 521.25 613.59 500.24 613.81
  Q 479.99 614.03 459.78 614.02
  A 0.28 0.28 0.0 0 1 459.50 613.74
  L 459.50 509.02
  Q 459.50 508.54 459.98 508.54
  Q 482.94 508.41 493.74 508.51
  C 513.26 508.69 532.87 515.56 528.81 539.73
  C 527.14 549.65 519.90 555.97 510.29 557.84
  Q 506.59 558.56 510.33 559.03
  Z
  M 493.24 553.68
  C 500.65 553.77 511.64 552.08 514.85 544.27
  C 517.87 536.88 516.70 525.71 508.26 522.21
  C 498.11 518.00 483.71 519.10 472.45 519.32
  Q 472.00 519.33 472.00 519.78
  L 472.00 552.97
  Q 472.00 553.44 472.46 553.44
  Q 482.91 553.56 493.24 553.68
  Z
  M 518.83 578.02
  C 516.43 567.16 504.54 564.14 494.99 564.15
  Q 483.78 564.17 472.47 564.30
  Q 472.00 564.31 472.00 564.77
  L 472.00 602.99
  Q 472.00 603.48 472.49 603.48
  Q 482.75 603.54 493.00 603.47
  C 499.24 603.43 505.81 602.77 511.22 599.69
  C 518.73 595.41 520.57 585.91 518.83 578.02
  Z"
/>
<path fill="#57595b" d="
  M 682.75 570.75
  L 682.75 613.50
  Q 682.75 614.00 682.25 614.00
  L 670.75 614.00
  Q 670.25 614.00 670.25 613.50
  L 670.25 509.00
  A 0.51 0.51 0.0 0 1 670.76 508.49
  Q 686.37 508.49 702.00 508.57
  C 717.46 508.63 733.55 513.66 736.60 530.95
  C 739.73 548.70 732.82 559.94 716.75 566.49
  Q 716.18 566.72 716.50 567.25
  L 744.46 613.55
  Q 744.74 614.00 744.21 614.00
  L 730.29 614.00
  Q 729.88 614.00 729.67 613.64
  L 704.73 570.79
  A 1.10 1.09 74.5 0 0 703.79 570.25
  L 683.25 570.25
  Q 682.75 570.25 682.75 570.75
  Z
  M 715.51 556.29
  C 724.25 551.27 725.84 540.55 723.15 531.52
  C 720.28 521.89 710.00 519.57 701.24 519.50
  Q 692.28 519.44 683.24 519.53
  Q 682.75 519.53 682.75 520.02
  L 682.75 558.98
  Q 682.75 559.46 683.22 559.46
  C 692.82 559.57 707.42 560.94 715.51 556.29
  Z"
/>
<path fill="#57595b" d="
  M 881.00 519.87
  L 881.00 613.63
  A 0.37 0.37 0.0 0 1 880.63 614.00
  L 868.87 614.00
  A 0.37 0.37 0.0 0 1 868.50 613.63
  L 868.51 519.87
  A 0.37 0.37 0.0 0 0 868.14 519.50
  L 835.38 519.50
  A 0.37 0.37 0.0 0 1 835.01 519.13
  L 835.00 508.87
  A 0.37 0.37 0.0 0 1 835.37 508.50
  L 913.88 508.50
  A 0.37 0.37 0.0 0 1 914.25 508.87
  L 914.25 519.13
  A 0.37 0.37 0.0 0 1 913.88 519.50
  L 881.37 519.50
  A 0.37 0.37 0.0 0 0 881.00 519.87
  Z"
/>
<path fill="#57595b" d="
  M 1051.00 570.75
  L 1051.00 613.50
  Q 1051.00 614.00 1050.50 614.00
  L 1039.00 614.00
  Q 1038.50 614.00 1038.50 613.50
  L 1038.50 508.98
  A 0.46 0.46 0.0 0 1 1038.96 508.52
  Q 1054.65 508.46 1070.50 508.51
  C 1087.68 508.56 1103.75 515.01 1105.28 534.50
  C 1106.50 550.04 1099.95 561.49 1084.87 566.48
  A 0.42 0.41 -25.0 0 0 1084.64 567.09
  L 1112.85 613.77
  Q 1112.99 613.99 1112.72 613.99
  L 1098.54 614.00
  Q 1098.13 614.00 1097.92 613.65
  L 1072.87 570.61
  A 0.75 0.72 -14.6 0 0 1072.23 570.25
  L 1051.50 570.25
  Q 1051.00 570.25 1051.00 570.75
  Z
  M 1083.56 522.44
  C 1073.92 518.19 1061.82 519.41 1051.46 519.55
  Q 1051.00 519.55 1051.00 520.01
  L 1051.00 559.24
  A 0.24 0.24 0.0 0 0 1051.24 559.48
  Q 1060.60 559.55 1069.99 559.48
  C 1080.00 559.40 1089.41 555.49 1091.80 545.50
  C 1093.82 537.06 1092.37 526.32 1083.56 522.44
  Z"
/>
<path fill="#57595b" d="
  M 1156.35 560.43
  A 0.31 0.31 0.0 0 0 1156.90 560.43
  L 1184.42 508.87
  A 0.71 0.70 -75.8 0 1 1185.04 508.50
  L 1197.95 508.50
  A 0.18 0.17 -76.2 0 1 1198.10 508.76
  Q 1181.03 540.05 1164.04 571.18
  Q 1163.03 573.04 1163.02 575.17
  Q 1162.99 594.34 1163.00 613.48
  Q 1163.00 614.00 1162.48 614.00
  L 1150.53 614.00
  A 0.31 0.31 0.0 0 1 1150.23 613.69
  Q 1150.31 594.67 1150.20 575.75
  Q 1150.19 573.54 1149.14 571.60
  Q 1132.19 540.25 1115.29 508.86
  A 0.25 0.25 0.0 0 1 1115.51 508.50
  L 1128.30 508.50
  A 0.93 0.92 -13.8 0 1 1129.12 508.99
  L 1156.35 560.43
  Z"
/>
</svg>
